<svg width="1920" height="969" xmlns="http://www.w3.org/2000/svg"><g><path d="M-47,-110L-97,219L-66,114Z" fill="#ffffff" stroke="#ffffff"/><path d="M-47,-110L-66,114L121,36Z" fill="#fbfefe" stroke="#fbfefe"/><path d="M-47,-110L121,36L51,-114Z" fill="#f9fcfd" stroke="#f9fcfd"/><path d="M-47,-110L51,-114L255,-134Z" fill="#f7fbfc" stroke="#f7fbfc"/><path d="M51,-114L121,36L255,-134Z" fill="#f4f8fb" stroke="#f4f8fb"/><path d="M255,-134L121,36L192,58Z" fill="#f1f7fa" stroke="#f1f7fa"/><path d="M255,-134L192,58L375,-116Z" fill="#ebf2f8" stroke="#ebf2f8"/><path d="M255,-134L375,-116L1116,-130Z" fill="#d3e1ee" stroke="#d3e1ee"/><path d="M375,-116L192,58L353,109Z" fill="#e9f0f7" stroke="#e9f0f7"/><path d="M375,-116L353,109L537,-75Z" fill="#e0eaf3" stroke="#e0eaf3"/><path d="M375,-116L537,-75L654,-91Z" fill="#d8e4f0" stroke="#d8e4f0"/><path d="M375,-116L654,-91L1116,-130Z" fill="#ccd7e9" stroke="#ccd7e9"/><path d="M537,-75L353,109L565,64Z" fill="#dbe6f1" stroke="#dbe6f1"/><path d="M537,-75L565,64L654,-91Z" fill="#d3e1ee" stroke="#d3e1ee"/><path d="M654,-91L565,64L670,120Z" fill="#d0deed" stroke="#d0deed"/><path d="M654,-91L670,120L809,104Z" fill="#ccd7e9" stroke="#ccd7e9"/><path d="M654,-91L809,104L878,-86Z" fill="#c9d1e6" stroke="#c9d1e6"/><path d="M654,-91L878,-86L1116,-130Z" fill="#c6c8e1" stroke="#c6c8e1"/><path d="M878,-86L809,104L998,-22Z" fill="#c6c7e1" stroke="#c6c7e1"/><path d="M878,-86L998,-22L1116,-130Z" fill="#c6bcdc" stroke="#c6bcdc"/><path d="M998,-22L809,104L990,128Z" fill="#c6c3df" stroke="#c6c3df"/><path d="M998,-22L990,128L1123,24Z" fill="#c6b8da" stroke="#c6b8da"/><path d="M998,-22L1123,24L1116,-130Z" fill="#c6b4d8" stroke="#c6b4d8"/><path d="M1116,-130L1123,24L1296,-17Z" fill="#c5aad3" stroke="#c5aad3"/><path d="M1116,-130L1296,-17L1444,-89Z" fill="#c4a0ce" stroke="#c4a0ce"/><path d="M1116,-130L1444,-89L1549,-112Z" fill="#c296c7" stroke="#c296c7"/><path d="M1296,-17L1123,24L1269,96Z" fill="#c4a5d1" stroke="#c4a5d1"/><path d="M1296,-17L1269,96L1416,95Z" fill="#c39bcb" stroke="#c39bcb"/><path d="M1296,-17L1416,95L1444,-89Z" fill="#c294c6" stroke="#c294c6"/><path d="M1444,-89L1416,95L1529,132Z" fill="#c18bc0" stroke="#c18bc0"/><path d="M1444,-89L1529,132L1549,-112Z" fill="#bf87bc" stroke="#bf87bc"/><path d="M1549,-112L1529,132L1719,112Z" fill="#b384b2" stroke="#b384b2"/><path d="M1549,-112L1719,112L1750,-69Z" fill="#aa81a9" stroke="#aa81a9"/><path d="M1549,-112L1750,-69L2007,-92Z" fill="#9f809e" stroke="#9f809e"/><path d="M1750,-69L1719,112L1928,21Z" fill="#9b809b" stroke="#9b809b"/><path d="M1750,-69L1928,21L1923,-46Z" fill="#938093" stroke="#938093"/><path d="M1750,-69L1923,-46L2007,-92Z" fill="#908090" stroke="#908090"/><path d="M1923,-46L1928,21L2007,-92Z" fill="#888089" stroke="#888089"/><path d="M2007,-92L1928,21L2074,45Z" fill="#828083" stroke="#828083"/><path d="M-66,114L-97,219L103,214Z" fill="#f3feff" stroke="#f3feff"/><path d="M-66,114L103,214L121,36Z" fill="#f7fcfd" stroke="#f7fcfd"/><path d="M121,36L103,214L192,58Z" fill="#f4f9fb" stroke="#f4f9fb"/><path d="M192,58L103,214L203,266Z" fill="#e9f7fb" stroke="#e9f7fb"/><path d="M192,58L203,266L353,109Z" fill="#e8f3f9" stroke="#e8f3f9"/><path d="M353,109L203,266L348,240Z" fill="#ddeff7" stroke="#ddeff7"/><path d="M353,109L348,240L469,179Z" fill="#daeaf4" stroke="#daeaf4"/><path d="M353,109L469,179L565,64Z" fill="#dbe7f2" stroke="#dbe7f2"/><path d="M565,64L469,179L670,120Z" fill="#d3e2ef" stroke="#d3e2ef"/><path d="M670,120L469,179L709,269Z" fill="#c7deed" stroke="#c7deed"/><path d="M670,120L709,269L801,219Z" fill="#bfd5e9" stroke="#bfd5e9"/><path d="M670,120L801,219L809,104Z" fill="#c5d3e7" stroke="#c5d3e7"/><path d="M809,104L801,219L990,128Z" fill="#c0c9e2" stroke="#c0c9e2"/><path d="M990,128L801,219L979,243Z" fill="#bbc3df" stroke="#bbc3df"/><path d="M990,128L979,243L1181,224Z" fill="#bab5d9" stroke="#bab5d9"/><path d="M990,128L1181,224L1123,24Z" fill="#c3b2d7" stroke="#c3b2d7"/><path d="M1123,24L1181,224L1269,96Z" fill="#c4a9d2" stroke="#c4a9d2"/><path d="M1269,96L1181,224L1257,280Z" fill="#b9a3d0" stroke="#b9a3d0"/><path d="M1269,96L1257,280L1382,189Z" fill="#b99dcc" stroke="#b99dcc"/><path d="M1269,96L1382,189L1416,95Z" fill="#c097c8" stroke="#c097c8"/><path d="M1416,95L1382,189L1529,132Z" fill="#bd8dc2" stroke="#bd8dc2"/><path d="M1529,132L1382,189L1469,336Z" fill="#b389c0" stroke="#b389c0"/><path d="M1529,132L1469,336L1618,252Z" fill="#a981b9" stroke="#a981b9"/><path d="M1529,132L1618,252L1719,112Z" fill="#aa82af" stroke="#aa82af"/><path d="M1719,112L1618,252L1733,225Z" fill="#9d7fa7" stroke="#9d7fa7"/><path d="M1719,112L1733,225L1913,193Z" fill="#947f9c" stroke="#947f9c"/><path d="M1719,112L1913,193L1928,21Z" fill="#948094" stroke="#948094"/><path d="M1928,21L1913,193L2010,173Z" fill="#867f89" stroke="#867f89"/><path d="M1928,21L2010,173L2074,45Z" fill="#828083" stroke="#828083"/><path d="M2074,45L2010,173L1995,410Z" fill="#737e81" stroke="#737e81"/><path d="M2074,45L1995,410L2025,642Z" fill="#5a677c" stroke="#5a677c"/><path d="M2074,45L2025,642L2080,808Z" fill="#54496e" stroke="#54496e"/><path d="M-97,219L-111,406L116,372Z" fill="#daedfe" stroke="#daedfe"/><path d="M-97,219L116,372L103,214Z" fill="#e2f4fd" stroke="#e2f4fd"/><path d="M103,214L116,372L203,266Z" fill="#d9eefb" stroke="#d9eefb"/><path d="M203,266L116,372L189,395Z" fill="#cfe3f9" stroke="#cfe3f9"/><path d="M203,266L189,395L348,240Z" fill="#d0e7f9" stroke="#d0e7f9"/><path d="M348,240L189,395L431,343Z" fill="#c5dff6" stroke="#c5dff6"/><path d="M348,240L431,343L469,179Z" fill="#cce3f3" stroke="#cce3f3"/><path d="M469,179L431,343L499,315Z" fill="#c3ddf2" stroke="#c3ddf2"/><path d="M469,179L499,315L709,269Z" fill="#c1dcef" stroke="#c1dcef"/><path d="M709,269L499,315L636,426Z" fill="#aecdec" stroke="#aecdec"/><path d="M709,269L636,426L804,415Z" fill="#a6bde5" stroke="#a6bde5"/><path d="M709,269L804,415L801,219Z" fill="#acc6e7" stroke="#acc6e7"/><path d="M801,219L804,415L979,243Z" fill="#aabee2" stroke="#aabee2"/><path d="M979,243L804,415L1029,338Z" fill="#a3b1de" stroke="#a3b1de"/><path d="M979,243L1029,338L1181,224Z" fill="#aeadd8" stroke="#aeadd8"/><path d="M1181,224L1029,338L1140,361Z" fill="#a7a3d6" stroke="#a7a3d6"/><path d="M1181,224L1140,361L1226,332Z" fill="#a69dd3" stroke="#a69dd3"/><path d="M1181,224L1226,332L1257,280Z" fill="#ab9dd1" stroke="#ab9dd1"/><path d="M1257,280L1226,332L1469,336Z" fill="#a38dcb" stroke="#a38dcb"/><path d="M1257,280L1469,336L1382,189Z" fill="#ab8dc7" stroke="#ab8dc7"/><path d="M1618,252L1469,336L1608,342Z" fill="#9977b6" stroke="#9977b6"/><path d="M1618,252L1608,342L1711,362Z" fill="#8d73ac" stroke="#8d73ac"/><path d="M1618,252L1711,362L1733,225Z" fill="#8f76a7" stroke="#8f76a7"/><path d="M1733,225L1711,362L1880,370Z" fill="#7d719d" stroke="#7d719d"/><path d="M1733,225L1880,370L1913,193Z" fill="#7f7896" stroke="#7f7896"/><path d="M1913,193L1880,370L1995,410Z" fill="#6a708c" stroke="#6a708c"/><path d="M1913,193L1995,410L2010,173Z" fill="#707987" stroke="#707987"/><path d="M-111,406L-118,1167L-74,929Z" fill="#b684b4" stroke="#b684b4"/><path d="M-111,406L-74,929L-54,817Z" fill="#ce98d0" stroke="#ce98d0"/><path d="M-111,406L-54,817L-34,709Z" fill="#d0a7dd" stroke="#d0a7dd"/><path d="M-111,406L-34,709L-28,537Z" fill="#d2bce8" stroke="#d2bce8"/><path d="M-111,406L-28,537L116,372Z" fill="#d0d6f4" stroke="#d0d6f4"/><path d="M116,372L-28,537L27,555Z" fill="#cdc8ed" stroke="#cdc8ed"/><path d="M116,372L27,555L196,543Z" fill="#c9c5eb" stroke="#c9c5eb"/><path d="M116,372L196,543L189,395Z" fill="#c6d0f1" stroke="#c6d0f1"/><path d="M189,395L196,543L394,573Z" fill="#c0bce6" stroke="#c0bce6"/><path d="M189,395L394,573L431,343Z" fill="#bac7ec" stroke="#bac7ec"/><path d="M431,343L394,573L516,561Z" fill="#b2b3e2" stroke="#b2b3e2"/><path d="M431,343L516,561L499,315Z" fill="#b1c5ea" stroke="#b1c5ea"/><path d="M499,315L516,561L636,426Z" fill="#aabce5" stroke="#aabce5"/><path d="M636,426L516,561L710,512Z" fill="#a4a8dc" stroke="#a4a8dc"/><path d="M636,426L710,512L804,415Z" fill="#a0acdd" stroke="#a0acdd"/><path d="M804,415L710,512L790,580Z" fill="#9d9bd5" stroke="#9d9bd5"/><path d="M804,415L790,580L978,551Z" fill="#9a90cf" stroke="#9a90cf"/><path d="M804,415L978,551L1029,338Z" fill="#9a9bd5" stroke="#9a9bd5"/><path d="M1029,338L978,551L1140,361Z" fill="#9b94d1" stroke="#9b94d1"/><path d="M1140,361L978,551L1171,533Z" fill="#9980c7" stroke="#9980c7"/><path d="M1140,361L1171,533L1226,332Z" fill="#9b89cb" stroke="#9b89cb"/><path d="M1226,332L1171,533L1318,521Z" fill="#9877c3" stroke="#9877c3"/><path d="M1226,332L1318,521L1469,336Z" fill="#9a7ac3" stroke="#9a7ac3"/><path d="M1469,336L1318,521L1390,540Z" fill="#9665b8" stroke="#9665b8"/><path d="M1469,336L1390,540L1560,541Z" fill="#955ab1" stroke="#955ab1"/><path d="M1469,336L1560,541L1608,342Z" fill="#9064b0" stroke="#9064b0"/><path d="M1608,342L1560,541L1697,538Z" fill="#8552a1" stroke="#8552a1"/><path d="M1608,342L1697,538L1711,362Z" fill="#805ea1" stroke="#805ea1"/><path d="M1711,362L1697,538L1880,370Z" fill="#745b96" stroke="#745b96"/><path d="M1880,370L1697,538L1906,516Z" fill="#6c4f89" stroke="#6c4f89"/><path d="M1880,370L1906,516L1995,410Z" fill="#5f5982" stroke="#5f5982"/><path d="M1995,410L1906,516L1979,570Z" fill="#5b4977" stroke="#5b4977"/><path d="M1995,410L1979,570L2025,642Z" fill="#573f6d" stroke="#573f6d"/><path d="M-28,537L-34,709L27,651Z" fill="#cea8de" stroke="#cea8de"/><path d="M-28,537L27,651L27,555Z" fill="#ceb3e3" stroke="#ceb3e3"/><path d="M27,555L27,651L196,543Z" fill="#cab0e1" stroke="#cab0e1"/><path d="M196,543L27,651L228,665Z" fill="#c5a5dc" stroke="#c5a5dc"/><path d="M196,543L228,665L394,573Z" fill="#bea5dc" stroke="#bea5dc"/><path d="M394,573L228,665L357,715Z" fill="#b995d3" stroke="#b995d3"/><path d="M394,573L357,715L490,655Z" fill="#b291d1" stroke="#b291d1"/><path d="M394,573L490,655L516,561Z" fill="#af9ad5" stroke="#af9ad5"/><path d="M516,561L490,655L622,693Z" fill="#a88cce" stroke="#a88cce"/><path d="M516,561L622,693L710,512Z" fill="#a494d2" stroke="#a494d2"/><path d="M710,512L622,693L790,580Z" fill="#9e8bcd" stroke="#9e8bcd"/><path d="M790,580L622,693L809,669Z" fill="#9c7bc6" stroke="#9c7bc6"/><path d="M790,580L809,669L978,551Z" fill="#987cc5" stroke="#987cc5"/><path d="M978,551L809,669L975,712Z" fill="#976bbd" stroke="#976bbd"/><path d="M978,551L975,712L1168,647Z" fill="#9761b9" stroke="#9761b9"/><path d="M978,551L1168,647L1171,533Z" fill="#9868bc" stroke="#9868bc"/><path d="M1171,533L1168,647L1267,656Z" fill="#9757b4" stroke="#9757b4"/><path d="M1171,533L1267,656L1318,521Z" fill="#985cb6" stroke="#985cb6"/><path d="M1318,521L1267,656L1386,637Z" fill="#964cad" stroke="#964cad"/><path d="M1318,521L1386,637L1390,540Z" fill="#9650af" stroke="#9650af"/><path d="M1390,540L1386,637L1560,541Z" fill="#9445a7" stroke="#9445a7"/><path d="M1560,541L1386,637L1560,714Z" fill="#91319c" stroke="#91319c"/><path d="M1560,541L1560,714L1710,663Z" fill="#842c8f" stroke="#842c8f"/><path d="M1560,541L1710,663L1697,538Z" fill="#7f3891" stroke="#7f3891"/><path d="M1697,538L1710,663L1906,516Z" fill="#713884" stroke="#713884"/><path d="M1906,516L1710,663L1880,710Z" fill="#692b77" stroke="#692b77"/><path d="M1906,516L1880,710L1979,570Z" fill="#5f3270" stroke="#5f3270"/><path d="M1979,570L1880,710L2025,642Z" fill="#592867" stroke="#592867"/><path d="M-34,709L-54,817L56,862Z" fill="#bd89bd" stroke="#bd89bd"/><path d="M-34,709L56,862L27,651Z" fill="#c892cb" stroke="#c892cb"/><path d="M27,651L56,862L228,665Z" fill="#c491cc" stroke="#c491cc"/><path d="M228,665L56,862L247,802Z" fill="#b986bf" stroke="#b986bf"/><path d="M228,665L247,802L357,715Z" fill="#b989c7" stroke="#b989c7"/><path d="M357,715L247,802L360,806Z" fill="#af7ebb" stroke="#af7ebb"/><path d="M357,715L360,806L488,783Z" fill="#ab7aba" stroke="#ab7aba"/><path d="M357,715L488,783L490,655Z" fill="#ad81c3" stroke="#ad81c3"/><path d="M490,655L488,783L622,693Z" fill="#a67ec2" stroke="#a67ec2"/><path d="M622,693L488,783L724,779Z" fill="#9e72b9" stroke="#9e72b9"/><path d="M622,693L724,779L809,669Z" fill="#9a71bb" stroke="#9a71bb"/><path d="M809,669L724,779L815,879Z" fill="#9060ab" stroke="#9060ab"/><path d="M809,669L815,879L931,869Z" fill="#84549f" stroke="#84549f"/><path d="M809,669L931,869L975,712Z" fill="#9358ab" stroke="#9358ab"/><path d="M975,712L931,869L1090,777Z" fill="#8a499d" stroke="#8a499d"/><path d="M975,712L1090,777L1168,647Z" fill="#954eaa" stroke="#954eaa"/><path d="M1168,647L1090,777L1308,778Z" fill="#933fa1" stroke="#933fa1"/><path d="M1168,647L1308,778L1267,656Z" fill="#9441a5" stroke="#9441a5"/><path d="M1267,656L1308,778L1386,637Z" fill="#933aa1" stroke="#933aa1"/><path d="M1386,637L1308,778L1397,836Z" fill="#902993" stroke="#902993"/><path d="M1386,637L1397,836L1560,714Z" fill="#8f2490" stroke="#8f2490"/><path d="M1560,714L1397,836L1621,807Z" fill="#81137b" stroke="#81137b"/><path d="M1560,714L1621,807L1710,663Z" fill="#7e197d" stroke="#7e197d"/><path d="M1710,663L1621,807L1722,836Z" fill="#72106e" stroke="#72106e"/><path d="M1710,663L1722,836L1880,710Z" fill="#6c156b" stroke="#6c156b"/><path d="M1880,710L1722,836L1834,850Z" fill="#5a0a57" stroke="#5a0a57"/><path d="M1880,710L1834,850L2080,808Z" fill="#4e0c4c" stroke="#4e0c4c"/><path d="M1880,710L2080,808L2025,642Z" fill="#521855" stroke="#521855"/><path d="M-54,817L-74,929L56,862Z" fill="#a97faa" stroke="#a97faa"/><path d="M56,862L-74,929L131,1013Z" fill="#937d96" stroke="#937d96"/><path d="M56,862L131,1013L268,963Z" fill="#897991" stroke="#897991"/><path d="M56,862L268,963L247,802Z" fill="#9b77a3" stroke="#9b77a3"/><path d="M247,802L268,963L360,806Z" fill="#9972a5" stroke="#9972a5"/><path d="M360,806L268,963L430,965Z" fill="#856e95" stroke="#856e95"/><path d="M360,806L430,965L488,783Z" fill="#916ba2" stroke="#916ba2"/><path d="M488,783L430,965L503,954Z" fill="#7f6793" stroke="#7f6793"/><path d="M488,783L503,954L724,779Z" fill="#8965a2" stroke="#8965a2"/><path d="M724,779L503,954L651,1025Z" fill="#6e5f8a" stroke="#6e5f8a"/><path d="M724,779L651,1025L815,879Z" fill="#70568d" stroke="#70568d"/><path d="M815,879L651,1025L825,966Z" fill="#5d537a" stroke="#5d537a"/><path d="M815,879L825,966L931,869Z" fill="#684b84" stroke="#684b84"/><path d="M931,869L825,966L1023,991Z" fill="#5d4476" stroke="#5d4476"/><path d="M931,869L1023,991L1090,777Z" fill="#6f3b83" stroke="#6f3b83"/><path d="M1090,777L1023,991L1130,1008Z" fill="#623473" stroke="#623473"/><path d="M1090,777L1130,1008L1308,778Z" fill="#752c82" stroke="#752c82"/><path d="M1308,778L1130,1008L1277,1030Z" fill="#5c2568" stroke="#5c2568"/><path d="M1308,778L1277,1030L1397,836Z" fill="#6b1b72" stroke="#6b1b72"/><path d="M1397,836L1277,1030L1429,962Z" fill="#59165e" stroke="#59165e"/><path d="M1397,836L1429,962L1621,807Z" fill="#6d096a" stroke="#6d096a"/><path d="M1621,807L1429,962L1524,1023Z" fill="#570754" stroke="#570754"/><path d="M1621,807L1524,1023L1724,954Z" fill="#4c0349" stroke="#4c0349"/><path d="M1621,807L1724,954L1722,836Z" fill="#560153" stroke="#560153"/><path d="M1722,836L1724,954L1834,850Z" fill="#490047" stroke="#490047"/><path d="M1834,850L1724,954L1874,1002Z" fill="#330032" stroke="#330032"/><path d="M1834,850L1874,1002L2047,950Z" fill="#260026" stroke="#260026"/><path d="M1834,850L2047,950L2080,808Z" fill="#300030" stroke="#300030"/><path d="M2080,808L2047,950L2080,1102Z" fill="#140014" stroke="#140014"/><path d="M-74,929L-118,1167L22,1179Z" fill="#7f8080" stroke="#7f8080"/><path d="M-74,929L22,1179L131,1013Z" fill="#7a7d7e" stroke="#7a7d7e"/><path d="M131,1013L22,1179L216,1099Z" fill="#757a7c" stroke="#757a7c"/><path d="M131,1013L216,1099L268,963Z" fill="#71777a" stroke="#71777a"/><path d="M268,963L216,1099L414,1170Z" fill="#6a7177" stroke="#6a7177"/><path d="M268,963L414,1170L430,965Z" fill="#646d75" stroke="#646d75"/><path d="M430,965L414,1170L553,1113Z" fill="#5d6872" stroke="#5d6872"/><path d="M430,965L553,1113L503,954Z" fill="#5d6675" stroke="#5d6675"/><path d="M503,954L553,1113L651,1025Z" fill="#55626f" stroke="#55626f"/><path d="M651,1025L553,1113L703,1136Z" fill="#505e6d" stroke="#505e6d"/><path d="M651,1025L703,1136L825,966Z" fill="#4c5769" stroke="#4c5769"/><path d="M825,966L703,1136L883,1156Z" fill="#485066" stroke="#485066"/><path d="M825,966L883,1156L1023,991Z" fill="#464660" stroke="#464660"/><path d="M1023,991L883,1156L968,1175Z" fill="#46415e" stroke="#46415e"/><path d="M1023,991L968,1175L1140,1109Z" fill="#46385a" stroke="#46385a"/><path d="M1023,991L1140,1109L1130,1008Z" fill="#463357" stroke="#463357"/><path d="M1130,1008L1140,1109L1277,1030Z" fill="#452a53" stroke="#452a53"/><path d="M1277,1030L1140,1109L1267,1118Z" fill="#452651" stroke="#452651"/><path d="M1277,1030L1267,1118L1484,1154Z" fill="#43194a" stroke="#43194a"/><path d="M1277,1030L1484,1154L1429,962Z" fill="#421346" stroke="#421346"/><path d="M1429,962L1484,1154L1524,1023Z" fill="#41093f" stroke="#41093f"/><path d="M1524,1023L1484,1154L1548,1169Z" fill="#3e073b" stroke="#3e073b"/><path d="M1524,1023L1548,1169L1731,1173Z" fill="#340432" stroke="#340432"/><path d="M1524,1023L1731,1173L1724,954Z" fill="#2c022b" stroke="#2c022b"/><path d="M1724,954L1731,1173L1874,1002Z" fill="#1e001e" stroke="#1e001e"/><path d="M1874,1002L1731,1173L1913,1099Z" fill="#170017" stroke="#170017"/><path d="M1874,1002L1913,1099L2047,950Z" fill="#0b000c" stroke="#0b000c"/><path d="M2047,950L1913,1099L2080,1102Z" fill="#010003" stroke="#010003"/><path d="M22,1179L1731,1173L968,1175Z" fill="#464661" stroke="#464661"/><path d="M22,1179L968,1175L414,1170Z" fill="#5d6872" stroke="#5d6872"/><path d="M22,1179L414,1170L216,1099Z" fill="#70767a" stroke="#70767a"/><path d="M414,1170L968,1175L883,1156Z" fill="#4a5468" stroke="#4a5468"/><path d="M414,1170L883,1156L703,1136Z" fill="#4e5c6c" stroke="#4e5c6c"/><path d="M414,1170L703,1136L553,1113Z" fill="#566370" stroke="#566370"/><path d="M968,1175L1731,1173L1548,1169Z" fill="#421144" stroke="#421144"/><path d="M968,1175L1548,1169L1484,1154Z" fill="#431b4b" stroke="#431b4b"/><path d="M968,1175L1484,1154L1267,1118Z" fill="#452551" stroke="#452551"/><path d="M968,1175L1267,1118L1140,1109Z" fill="#463056" stroke="#463056"/><path d="M1731,1173L2080,1102L1913,1099Z" fill="#0e000f" stroke="#0e000f"/></g></svg>