<svg width="1920" height="969" xmlns="http://www.w3.org/2000/svg"><g><path d="M-19,-48L-133,323L-56,111Z" fill="#ffefeb" stroke="#ffefeb"/><path d="M-19,-48L-56,111L85,83Z" fill="#fff1ed" stroke="#fff1ed"/><path d="M-19,-48L85,83L84,-102Z" fill="#fff2ef" stroke="#fff2ef"/><path d="M84,-102L85,83L227,-40Z" fill="#feeeeb" stroke="#feeeeb"/><path d="M84,-102L227,-40L526,-57Z" fill="#fee5e5" stroke="#fee5e5"/><path d="M84,-102L526,-57L644,-81Z" fill="#fddddf" stroke="#fddddf"/><path d="M84,-102L644,-81L785,-100Z" fill="#fdd8dc" stroke="#fdd8dc"/><path d="M84,-102L785,-100L1073,-124Z" fill="#fdcdd8" stroke="#fdcdd8"/><path d="M227,-40L85,83L190,131Z" fill="#fee7e6" stroke="#fee7e6"/><path d="M227,-40L190,131L355,49Z" fill="#fee3e2" stroke="#fee3e2"/><path d="M227,-40L355,49L419,-22Z" fill="#fee2e2" stroke="#fee2e2"/><path d="M227,-40L419,-22L526,-57Z" fill="#fedfe0" stroke="#fedfe0"/><path d="M419,-22L355,49L558,127Z" fill="#fdd8da" stroke="#fdd8da"/><path d="M419,-22L558,127L526,-57Z" fill="#fdd7db" stroke="#fdd7db"/><path d="M526,-57L558,127L661,29Z" fill="#fdcfd7" stroke="#fdcfd7"/><path d="M526,-57L661,29L644,-81Z" fill="#fdcfd9" stroke="#fdcfd9"/><path d="M644,-81L661,29L785,-100Z" fill="#fcc9d7" stroke="#fcc9d7"/><path d="M785,-100L661,29L799,105Z" fill="#fcc4d5" stroke="#fcc4d5"/><path d="M785,-100L799,105L930,37Z" fill="#fcbcd2" stroke="#fcbcd2"/><path d="M785,-100L930,37L956,-29Z" fill="#fcb9d2" stroke="#fcb9d2"/><path d="M785,-100L956,-29L1073,-124Z" fill="#fbb5d1" stroke="#fbb5d1"/><path d="M956,-29L930,37L1120,37Z" fill="#f8aece" stroke="#f8aece"/><path d="M956,-29L1120,37L1073,-124Z" fill="#f4aacd" stroke="#f4aacd"/><path d="M1073,-124L1120,37L1216,-80Z" fill="#eea1ca" stroke="#eea1ca"/><path d="M1073,-124L1216,-80L1630,-88Z" fill="#e18fc4" stroke="#e18fc4"/><path d="M1073,-124L1630,-88L1902,-89Z" fill="#d080bb" stroke="#d080bb"/><path d="M1216,-80L1120,37L1228,86Z" fill="#ea9ac7" stroke="#ea9ac7"/><path d="M1216,-80L1228,86L1372,60Z" fill="#e490c3" stroke="#e490c3"/><path d="M1216,-80L1372,60L1410,-46Z" fill="#df8cc3" stroke="#df8cc3"/><path d="M1216,-80L1410,-46L1630,-88Z" fill="#d883c0" stroke="#d883c0"/><path d="M1410,-46L1372,60L1541,16Z" fill="#d77fbe" stroke="#d77fbe"/><path d="M1410,-46L1541,16L1630,-88Z" fill="#d080bc" stroke="#d080bc"/><path d="M1630,-88L1541,16L1714,-26Z" fill="#c880b8" stroke="#c880b8"/><path d="M1630,-88L1714,-26L1902,-89Z" fill="#bf80b3" stroke="#bf80b3"/><path d="M1714,-26L1541,16L1762,39Z" fill="#c57fb6" stroke="#c57fb6"/><path d="M1714,-26L1762,39L1842,21Z" fill="#bd7fb2" stroke="#bd7fb2"/><path d="M1714,-26L1842,21L1902,-89Z" fill="#ba80b1" stroke="#ba80b1"/><path d="M1902,-89L1842,21L2025,72Z" fill="#b280ad" stroke="#b280ad"/><path d="M1902,-89L2025,72L2061,-56Z" fill="#ac80aa" stroke="#ac80aa"/><path d="M2061,-56L2025,72L2078,197Z" fill="#a87aa3" stroke="#a87aa3"/><path d="M-56,111L-133,323L-83,271Z" fill="#ffe7e4" stroke="#ffe7e4"/><path d="M-56,111L-83,271L129,236Z" fill="#ffe4e2" stroke="#ffe4e2"/><path d="M-56,111L129,236L85,83Z" fill="#ffe6e5" stroke="#ffe6e5"/><path d="M85,83L129,236L190,131Z" fill="#fee1e0" stroke="#fee1e0"/><path d="M190,131L129,236L241,240Z" fill="#fedadb" stroke="#fedadb"/><path d="M190,131L241,240L355,49Z" fill="#fedbdc" stroke="#fedbdc"/><path d="M355,49L241,240L389,236Z" fill="#fed4d6" stroke="#fed4d6"/><path d="M355,49L389,236L558,127Z" fill="#fdd1d5" stroke="#fdd1d5"/><path d="M558,127L389,236L506,272Z" fill="#fdc8cd" stroke="#fdc8cd"/><path d="M558,127L506,272L678,190Z" fill="#fdc2cc" stroke="#fdc2cc"/><path d="M558,127L678,190L661,29Z" fill="#fdc4d0" stroke="#fdc4d0"/><path d="M661,29L678,190L799,105Z" fill="#fcbecf" stroke="#fcbecf"/><path d="M799,105L678,190L850,219Z" fill="#fcb4c9" stroke="#fcb4c9"/><path d="M799,105L850,219L930,37Z" fill="#fcb2ca" stroke="#fcb2ca"/><path d="M930,37L850,219L1026,266Z" fill="#fba7c5" stroke="#fba7c5"/><path d="M930,37L1026,266L1120,37Z" fill="#f6a3c6" stroke="#f6a3c6"/><path d="M1120,37L1026,266L1136,229Z" fill="#f197bf" stroke="#f197bf"/><path d="M1120,37L1136,229L1228,86Z" fill="#ec95c1" stroke="#ec95c1"/><path d="M1228,86L1136,229L1251,284Z" fill="#e989b9" stroke="#e989b9"/><path d="M1228,86L1251,284L1394,180Z" fill="#e281b7" stroke="#e281b7"/><path d="M1228,86L1394,180L1372,60Z" fill="#df83bb" stroke="#df83bb"/><path d="M1372,60L1394,180L1541,16Z" fill="#d77ab9" stroke="#d77ab9"/><path d="M1541,16L1394,180L1630,214Z" fill="#d174b2" stroke="#d174b2"/><path d="M1541,16L1630,214L1762,39Z" fill="#c778b1" stroke="#c778b1"/><path d="M1762,39L1630,214L1775,184Z" fill="#c174aa" stroke="#c174aa"/><path d="M1762,39L1775,184L1842,21Z" fill="#bc79ac" stroke="#bc79ac"/><path d="M1842,21L1775,184L1922,214Z" fill="#b874a6" stroke="#b874a6"/><path d="M1842,21L1922,214L2025,72Z" fill="#b277a6" stroke="#b277a6"/><path d="M2025,72L1922,214L2078,197Z" fill="#ac729f" stroke="#ac729f"/><path d="M-83,271L-133,323L79,412Z" fill="#ffd2dc" stroke="#ffd2dc"/><path d="M-83,271L79,412L129,236Z" fill="#ffd3da" stroke="#ffd3da"/><path d="M129,236L79,412L263,425Z" fill="#fec3d2" stroke="#fec3d2"/><path d="M129,236L263,425L241,240Z" fill="#fecad3" stroke="#fecad3"/><path d="M241,240L263,425L337,339Z" fill="#fec0ce" stroke="#fec0ce"/><path d="M241,240L337,339L389,236Z" fill="#fec9d0" stroke="#fec9d0"/><path d="M389,236L337,339L509,344Z" fill="#fdbeca" stroke="#fdbeca"/><path d="M389,236L509,344L506,272Z" fill="#fdbec9" stroke="#fdbec9"/><path d="M506,272L509,344L678,190Z" fill="#fdbac8" stroke="#fdbac8"/><path d="M678,190L509,344L714,421Z" fill="#fdabc3" stroke="#fdabc3"/><path d="M678,190L714,421L803,325Z" fill="#fca5c1" stroke="#fca5c1"/><path d="M678,190L803,325L850,219Z" fill="#fcaec4" stroke="#fcaec4"/><path d="M850,219L803,325L935,414Z" fill="#fc99bd" stroke="#fc99bd"/><path d="M850,219L935,414L1026,266Z" fill="#fb97bc" stroke="#fb97bc"/><path d="M1026,266L935,414L1146,362Z" fill="#f584b6" stroke="#f584b6"/><path d="M1026,266L1146,362L1136,229Z" fill="#f088b8" stroke="#f088b8"/><path d="M1136,229L1146,362L1251,284Z" fill="#eb7fb4" stroke="#eb7fb4"/><path d="M1251,284L1146,362L1267,382Z" fill="#e771b0" stroke="#e771b0"/><path d="M1251,284L1267,382L1457,339Z" fill="#df67ac" stroke="#df67ac"/><path d="M1251,284L1457,339L1394,180Z" fill="#dc6faf" stroke="#dc6faf"/><path d="M1394,180L1457,339L1630,214Z" fill="#d36bac" stroke="#d36bac"/><path d="M1630,214L1457,339L1586,363Z" fill="#ce60a5" stroke="#ce60a5"/><path d="M1630,214L1586,363L1701,395Z" fill="#c85ca1" stroke="#c85ca1"/><path d="M1630,214L1701,395L1775,184Z" fill="#c368a3" stroke="#c368a3"/><path d="M1775,184L1701,395L1849,431Z" fill="#bd5a9c" stroke="#bd5a9c"/><path d="M1775,184L1849,431L1922,214Z" fill="#b8659d" stroke="#b8659d"/><path d="M1922,214L1849,431L2027,386Z" fill="#b15996" stroke="#b15996"/><path d="M1922,214L2027,386L2078,197Z" fill="#ab6798" stroke="#ab6798"/><path d="M2078,197L2027,386L2052,785Z" fill="#a8448a" stroke="#a8448a"/><path d="M2078,197L2052,785L2078,939Z" fill="#97227b" stroke="#97227b"/><path d="M-133,323L-131,967L-65,516Z" fill="#f4a5cc" stroke="#f4a5cc"/><path d="M-133,323L-65,516L79,412Z" fill="#ffc3d7" stroke="#ffc3d7"/><path d="M79,412L-65,516L110,481Z" fill="#ffb4d0" stroke="#ffb4d0"/><path d="M79,412L110,481L263,425Z" fill="#feb4cd" stroke="#feb4cd"/><path d="M263,425L110,481L283,528Z" fill="#fea8c8" stroke="#fea8c8"/><path d="M263,425L283,528L372,571Z" fill="#fb9ec2" stroke="#fb9ec2"/><path d="M263,425L372,571L337,339Z" fill="#fea9c6" stroke="#fea9c6"/><path d="M337,339L372,571L524,491Z" fill="#fda0c1" stroke="#fda0c1"/><path d="M337,339L524,491L509,344Z" fill="#fdabc3" stroke="#fdabc3"/><path d="M509,344L524,491L714,421Z" fill="#fd9dbe" stroke="#fd9dbe"/><path d="M714,421L524,491L698,474Z" fill="#fd8fba" stroke="#fd8fba"/><path d="M714,421L698,474L867,564Z" fill="#fc82b6" stroke="#fc82b6"/><path d="M714,421L867,564L935,414Z" fill="#fc7fb5" stroke="#fc7fb5"/><path d="M714,421L935,414L803,325Z" fill="#fc90ba" stroke="#fc90ba"/><path d="M935,414L867,564L1022,583Z" fill="#f86dae" stroke="#f86dae"/><path d="M935,414L1022,583L1146,362Z" fill="#f670b0" stroke="#f670b0"/><path d="M1146,362L1022,583L1148,556Z" fill="#ef60aa" stroke="#ef60aa"/><path d="M1146,362L1148,556L1267,480Z" fill="#ea5da9" stroke="#ea5da9"/><path d="M1146,362L1267,480L1267,382Z" fill="#e764ac" stroke="#e764ac"/><path d="M1267,382L1267,480L1399,483Z" fill="#e154a6" stroke="#e154a6"/><path d="M1267,382L1399,483L1457,339Z" fill="#dc55a7" stroke="#dc55a7"/><path d="M1457,339L1399,483L1519,538Z" fill="#d544a1" stroke="#d544a1"/><path d="M1457,339L1519,538L1586,363Z" fill="#d14ca1" stroke="#d14ca1"/><path d="M1586,363L1519,538L1701,395Z" fill="#ca489c" stroke="#ca489c"/><path d="M1701,395L1519,538L1739,549Z" fill="#c63d96" stroke="#c63d96"/><path d="M1701,395L1739,549L1823,484Z" fill="#bf4094" stroke="#bf4094"/><path d="M1701,395L1823,484L1849,431Z" fill="#bc4795" stroke="#bc4795"/><path d="M1849,431L1823,484L2007,512Z" fill="#b4408f" stroke="#b4408f"/><path d="M1849,431L2007,512L2027,386Z" fill="#af468f" stroke="#af468f"/><path d="M2027,386L2007,512L2052,785Z" fill="#a23083" stroke="#a23083"/><path d="M-65,516L-131,967L-83,870Z" fill="#e282bb" stroke="#e282bb"/><path d="M-65,516L-83,870L-43,664Z" fill="#eb93c3" stroke="#eb93c3"/><path d="M-65,516L-43,664L110,481Z" fill="#f8a7cb" stroke="#f8a7cb"/><path d="M110,481L-43,664L166,650Z" fill="#f39ac4" stroke="#f39ac4"/><path d="M110,481L166,650L283,528Z" fill="#f79dc3" stroke="#f79dc3"/><path d="M283,528L166,650L372,571Z" fill="#f492bd" stroke="#f492bd"/><path d="M372,571L166,650L421,725Z" fill="#ed83b6" stroke="#ed83b6"/><path d="M372,571L421,725L493,642Z" fill="#ed7eb1" stroke="#ed7eb1"/><path d="M372,571L493,642L524,491Z" fill="#f58ab6" stroke="#f58ab6"/><path d="M524,491L493,642L660,703Z" fill="#f07ab0" stroke="#f07ab0"/><path d="M524,491L660,703L698,474Z" fill="#f680b3" stroke="#f680b3"/><path d="M698,474L660,703L867,564Z" fill="#f372ae" stroke="#f372ae"/><path d="M867,564L660,703L885,677Z" fill="#ec61a7" stroke="#ec61a7"/><path d="M867,564L885,677L1022,583Z" fill="#ef5fa7" stroke="#ef5fa7"/><path d="M1022,583L885,677L937,720Z" fill="#ea53a2" stroke="#ea53a2"/><path d="M1022,583L937,720L1079,729Z" fill="#e4499e" stroke="#e4499e"/><path d="M1022,583L1079,729L1148,556Z" fill="#e44ca0" stroke="#e44ca0"/><path d="M1148,556L1079,729L1328,619Z" fill="#db3f9c" stroke="#db3f9c"/><path d="M1148,556L1328,619L1267,480Z" fill="#df47a0" stroke="#df47a0"/><path d="M1267,480L1328,619L1399,483Z" fill="#db42a0" stroke="#db42a0"/><path d="M1399,483L1328,619L1519,538Z" fill="#d3369b" stroke="#d3369b"/><path d="M1519,538L1328,619L1375,679Z" fill="#cd2b95" stroke="#cd2b95"/><path d="M1519,538L1375,679L1571,697Z" fill="#c42290" stroke="#c42290"/><path d="M1519,538L1571,697L1739,549Z" fill="#bf2a90" stroke="#bf2a90"/><path d="M1739,549L1571,697L1690,728Z" fill="#b51e88" stroke="#b51e88"/><path d="M1739,549L1690,728L1895,673Z" fill="#ad2085" stroke="#ad2085"/><path d="M1739,549L1895,673L1823,484Z" fill="#b12f8a" stroke="#b12f8a"/><path d="M1823,484L1895,673L2007,512Z" fill="#ac3188" stroke="#ac3188"/><path d="M2007,512L1895,673L2002,625Z" fill="#a32882" stroke="#a32882"/><path d="M2007,512L2002,625L2052,785Z" fill="#9b227d" stroke="#9b227d"/><path d="M-43,664L-83,870L43,790Z" fill="#e280b9" stroke="#e280b9"/><path d="M-43,664L43,790L89,723Z" fill="#e786bb" stroke="#e786bb"/><path d="M-43,664L89,723L166,650Z" fill="#eb8cbd" stroke="#eb8cbd"/><path d="M89,723L43,790L232,852Z" fill="#e075b2" stroke="#e075b2"/><path d="M89,723L232,852L166,650Z" fill="#e57bb4" stroke="#e57bb4"/><path d="M166,650L232,852L342,848Z" fill="#e06fad" stroke="#e06fad"/><path d="M166,650L342,848L421,725Z" fill="#e473ae" stroke="#e473ae"/><path d="M421,725L342,848L540,836Z" fill="#de60a3" stroke="#de60a3"/><path d="M421,725L540,836L493,642Z" fill="#e46aa7" stroke="#e46aa7"/><path d="M493,642L540,836L660,703Z" fill="#e565a6" stroke="#e565a6"/><path d="M660,703L540,836L642,829Z" fill="#df569f" stroke="#df569f"/><path d="M660,703L642,829L871,831Z" fill="#de4d9c" stroke="#de4d9c"/><path d="M660,703L871,831L885,677Z" fill="#e3509f" stroke="#e3509f"/><path d="M885,677L871,831L937,720Z" fill="#e2489c" stroke="#e2489c"/><path d="M937,720L871,831L997,848Z" fill="#dc3a96" stroke="#dc3a96"/><path d="M937,720L997,848L1079,729Z" fill="#dc3a97" stroke="#dc3a97"/><path d="M1079,729L997,848L1122,788Z" fill="#d52f92" stroke="#d52f92"/><path d="M1079,729L1122,788L1328,619Z" fill="#d43195" stroke="#d43195"/><path d="M1328,619L1122,788L1312,807Z" fill="#cc2490" stroke="#cc2490"/><path d="M1328,619L1312,807L1375,679Z" fill="#c92290" stroke="#c92290"/><path d="M1375,679L1312,807L1485,765Z" fill="#c0138a" stroke="#c0138a"/><path d="M1375,679L1485,765L1571,697Z" fill="#bd148a" stroke="#bd148a"/><path d="M1571,697L1485,765L1561,877Z" fill="#b20882" stroke="#b20882"/><path d="M1571,697L1561,877L1690,728Z" fill="#ae0a81" stroke="#ae0a81"/><path d="M1690,728L1561,877L1700,885Z" fill="#a5007a" stroke="#a5007a"/><path d="M1690,728L1700,885L1841,790Z" fill="#a00479" stroke="#a00479"/><path d="M1690,728L1841,790L1895,673Z" fill="#a2117c" stroke="#a2117c"/><path d="M1895,673L1841,790L2052,785Z" fill="#980e76" stroke="#980e76"/><path d="M1895,673L2052,785L2002,625Z" fill="#981879" stroke="#981879"/><path d="M-83,870L-131,967L61,1034Z" fill="#d079aa" stroke="#d079aa"/><path d="M-83,870L61,1034L43,790Z" fill="#d675ad" stroke="#d675ad"/><path d="M43,790L61,1034L232,852Z" fill="#d66fa9" stroke="#d66fa9"/><path d="M232,852L61,1034L282,1022Z" fill="#ce6b9f" stroke="#ce6b9f"/><path d="M232,852L282,1022L342,848Z" fill="#d465a1" stroke="#d465a1"/><path d="M342,848L282,1022L410,1028Z" fill="#ce6299" stroke="#ce6299"/><path d="M342,848L410,1028L511,931Z" fill="#d15e98" stroke="#d15e98"/><path d="M342,848L511,931L540,836Z" fill="#d75b9c" stroke="#d75b9c"/><path d="M540,836L511,931L642,829Z" fill="#d7549a" stroke="#d7549a"/><path d="M642,829L511,931L650,1031Z" fill="#d15193" stroke="#d15193"/><path d="M642,829L650,1031L819,986Z" fill="#ce498f" stroke="#ce498f"/><path d="M642,829L819,986L871,831Z" fill="#d54393" stroke="#d54393"/><path d="M871,831L819,986L938,940Z" fill="#d13b8d" stroke="#d13b8d"/><path d="M871,831L938,940L997,848Z" fill="#d53690" stroke="#d53690"/><path d="M997,848L938,940L1087,936Z" fill="#ce2f8b" stroke="#ce2f8b"/><path d="M997,848L1087,936L1122,788Z" fill="#ce298c" stroke="#ce298c"/><path d="M1122,788L1087,936L1312,807Z" fill="#c81d8a" stroke="#c81d8a"/><path d="M1312,807L1087,936L1301,998Z" fill="#bc1782" stroke="#bc1782"/><path d="M1312,807L1301,998L1460,1022Z" fill="#b00a7b" stroke="#b00a7b"/><path d="M1312,807L1460,1022L1553,924Z" fill="#ac017a" stroke="#ac017a"/><path d="M1312,807L1553,924L1485,765Z" fill="#b30081" stroke="#b30081"/><path d="M1485,765L1553,924L1561,877Z" fill="#ab007c" stroke="#ab007c"/><path d="M1561,877L1553,924L1700,885Z" fill="#a20076" stroke="#a20076"/><path d="M1700,885L1553,924L1784,1000Z" fill="#980070" stroke="#980070"/><path d="M1700,885L1784,1000L1841,790Z" fill="#950070" stroke="#950070"/><path d="M1841,790L1784,1000L1878,1003Z" fill="#8d006a" stroke="#8d006a"/><path d="M1841,790L1878,1003L2052,785Z" fill="#8d006d" stroke="#8d006d"/><path d="M2052,785L1878,1003L2078,939Z" fill="#820066" stroke="#820066"/><path d="M-131,967L-84,1090L61,1034Z" fill="#c979a4" stroke="#c979a4"/><path d="M61,1034L-84,1090L64,1166Z" fill="#c2759c" stroke="#c2759c"/><path d="M61,1034L64,1166L190,1092Z" fill="#c27098" stroke="#c27098"/><path d="M61,1034L190,1092L282,1022Z" fill="#c66c99" stroke="#c66c99"/><path d="M282,1022L190,1092L396,1066Z" fill="#c56593" stroke="#c56593"/><path d="M282,1022L396,1066L410,1028Z" fill="#c76192" stroke="#c76192"/><path d="M410,1028L396,1066L545,1097Z" fill="#c45c8c" stroke="#c45c8c"/><path d="M410,1028L545,1097L511,931Z" fill="#c85a8e" stroke="#c85a8e"/><path d="M511,931L545,1097L650,1031Z" fill="#c8538c" stroke="#c8538c"/><path d="M650,1031L545,1097L616,1119Z" fill="#c25086" stroke="#c25086"/><path d="M650,1031L616,1119L799,1156Z" fill="#bf4a82" stroke="#bf4a82"/><path d="M650,1031L799,1156L819,986Z" fill="#c34484" stroke="#c34484"/><path d="M819,986L799,1156L916,1082Z" fill="#c13d81" stroke="#c13d81"/><path d="M819,986L916,1082L938,940Z" fill="#c83a85" stroke="#c83a85"/><path d="M938,940L916,1082L1087,936Z" fill="#c83285" stroke="#c83285"/><path d="M1087,936L916,1082L1152,1083Z" fill="#be2a7e" stroke="#be2a7e"/><path d="M1087,936L1152,1083L1301,998Z" fill="#b71d7c" stroke="#b71d7c"/><path d="M1301,998L1152,1083L1244,1174Z" fill="#ab1773" stroke="#ab1773"/><path d="M1301,998L1244,1174L1467,1184Z" fill="#a00c6c" stroke="#a00c6c"/><path d="M1301,998L1467,1184L1460,1022Z" fill="#9f046e" stroke="#9f046e"/><path d="M1460,1022L1467,1184L1544,1165Z" fill="#930066" stroke="#930066"/><path d="M1460,1022L1544,1165L1553,924Z" fill="#9a006c" stroke="#9a006c"/><path d="M1553,924L1544,1165L1784,1000Z" fill="#930069" stroke="#930069"/><path d="M1784,1000L1544,1165L1782,1121Z" fill="#860061" stroke="#860061"/><path d="M1784,1000L1782,1121L1878,1003Z" fill="#830061" stroke="#830061"/><path d="M1878,1003L1782,1121L1925,1164Z" fill="#7a005b" stroke="#7a005b"/><path d="M1878,1003L1925,1164L1984,1164Z" fill="#740057" stroke="#740057"/><path d="M1878,1003L1984,1164L2078,939Z" fill="#77005c" stroke="#77005c"/><path d="M64,1166L1467,1184L1244,1174Z" fill="#b73776" stroke="#b73776"/><path d="M64,1166L1244,1174L799,1156Z" fill="#b9497c" stroke="#b9497c"/><path d="M64,1166L799,1156L616,1119Z" fill="#bc5983" stroke="#bc5983"/><path d="M64,1166L616,1119L545,1097Z" fill="#be5e88" stroke="#be5e88"/><path d="M64,1166L545,1097L396,1066Z" fill="#c0638d" stroke="#c0638d"/><path d="M64,1166L396,1066L190,1092Z" fill="#c06992" stroke="#c06992"/><path d="M799,1156L1244,1174L916,1082Z" fill="#b93177" stroke="#b93177"/><path d="M916,1082L1244,1174L1152,1083Z" fill="#b22575" stroke="#b22575"/><path d="M1467,1184L1984,1164L1925,1164Z" fill="#780057" stroke="#780057"/><path d="M1467,1184L1925,1164L1544,1165Z" fill="#83005c" stroke="#83005c"/><path d="M1544,1165L1925,1164L1782,1121Z" fill="#7d005a" stroke="#7d005a"/></g></svg>