<svg width="1920" height="969" xmlns="http://www.w3.org/2000/svg"><g><path d="M-95,-34L-119,284L-100,131Z" fill="#ffeed3" stroke="#ffeed3"/><path d="M-95,-34L-100,131L33,83Z" fill="#fff1db" stroke="#fff1db"/><path d="M-95,-34L33,83L90,-117Z" fill="#fff2e6" stroke="#fff2e6"/><path d="M90,-117L33,83L210,64Z" fill="#ffedd8" stroke="#ffedd8"/><path d="M90,-117L210,64L183,-134Z" fill="#ffecda" stroke="#ffecda"/><path d="M183,-134L210,64L326,-56Z" fill="#ffe8d4" stroke="#ffe8d4"/><path d="M183,-134L326,-56L582,-77Z" fill="#fee3cb" stroke="#fee3cb"/><path d="M183,-134L582,-77L683,-86Z" fill="#fedec1" stroke="#fedec1"/><path d="M183,-134L683,-86L1183,-133Z" fill="#fdd4b2" stroke="#fdd4b2"/><path d="M326,-56L210,64L428,19Z" fill="#fee4c8" stroke="#fee4c8"/><path d="M326,-56L428,19L582,-77Z" fill="#fedfc4" stroke="#fedfc4"/><path d="M582,-77L428,19L568,101Z" fill="#fedbb7" stroke="#fedbb7"/><path d="M582,-77L568,101L619,81Z" fill="#fed6ae" stroke="#fed6ae"/><path d="M582,-77L619,81L683,-86Z" fill="#fed7b6" stroke="#fed7b6"/><path d="M683,-86L619,81L840,108Z" fill="#fdcfa5" stroke="#fdcfa5"/><path d="M683,-86L840,108L840,-56Z" fill="#fccca8" stroke="#fccca8"/><path d="M683,-86L840,-56L938,-72Z" fill="#fbcaa8" stroke="#fbcaa8"/><path d="M683,-86L938,-72L1183,-133Z" fill="#f9c2a0" stroke="#f9c2a0"/><path d="M840,-56L840,108L952,90Z" fill="#fac397" stroke="#fac397"/><path d="M840,-56L952,90L938,-72Z" fill="#f9c49f" stroke="#f9c49f"/><path d="M938,-72L952,90L1216,-36Z" fill="#f7bb95" stroke="#f7bb95"/><path d="M938,-72L1216,-36L1183,-133Z" fill="#f6b693" stroke="#f6b693"/><path d="M1183,-133L1216,-36L1430,-68Z" fill="#f3ab87" stroke="#f3ab87"/><path d="M1183,-133L1430,-68L1853,-101Z" fill="#ef9c80" stroke="#ef9c80"/><path d="M1216,-36L952,90L1180,111Z" fill="#f6b284" stroke="#f6b284"/><path d="M1216,-36L1180,111L1307,72Z" fill="#f4aa7c" stroke="#f4aa7c"/><path d="M1216,-36L1307,72L1430,-68Z" fill="#f2a881" stroke="#f2a881"/><path d="M1430,-68L1307,72L1380,82Z" fill="#f1a276" stroke="#f1a276"/><path d="M1430,-68L1380,82L1530,103Z" fill="#f09c74" stroke="#f09c74"/><path d="M1430,-68L1530,103L1546,-40Z" fill="#ef9b7c" stroke="#ef9b7c"/><path d="M1430,-68L1546,-40L1853,-101Z" fill="#ed9380" stroke="#ed9380"/><path d="M1546,-40L1530,103L1717,-33Z" fill="#ed9479" stroke="#ed9479"/><path d="M1546,-40L1717,-33L1853,-101Z" fill="#eb8d80" stroke="#eb8d80"/><path d="M1717,-33L1530,103L1778,32Z" fill="#ec8c75" stroke="#ec8c75"/><path d="M1717,-33L1778,32L1853,-101Z" fill="#ea8780" stroke="#ea8780"/><path d="M1853,-101L1778,32L1853,107Z" fill="#e98379" stroke="#e98379"/><path d="M1853,-101L1853,107L2030,-64Z" fill="#e7807f" stroke="#e7807f"/><path d="M2030,-64L1853,107L2023,101Z" fill="#e67c72" stroke="#e67c72"/><path d="M2030,-64L2023,101L2068,362Z" fill="#e57663" stroke="#e57663"/><path d="M-100,131L-119,284L73,237Z" fill="#ffe5be" stroke="#ffe5be"/><path d="M-100,131L73,237L33,83Z" fill="#ffe8c7" stroke="#ffe8c7"/><path d="M33,83L73,237L174,223Z" fill="#ffe1ba" stroke="#ffe1ba"/><path d="M33,83L174,223L210,64Z" fill="#ffe4c1" stroke="#ffe4c1"/><path d="M210,64L174,223L361,212Z" fill="#ffdbb1" stroke="#ffdbb1"/><path d="M210,64L361,212L428,19Z" fill="#feddb6" stroke="#feddb6"/><path d="M428,19L361,212L568,101Z" fill="#fed7ab" stroke="#fed7ab"/><path d="M568,101L361,212L504,265Z" fill="#fecf9a" stroke="#fecf9a"/><path d="M568,101L504,265L654,274Z" fill="#feca8e" stroke="#feca8e"/><path d="M568,101L654,274L619,81Z" fill="#fecc97" stroke="#fecc97"/><path d="M619,81L654,274L840,108Z" fill="#fdc790" stroke="#fdc790"/><path d="M840,108L654,274L855,201Z" fill="#fcbe82" stroke="#fcbe82"/><path d="M840,108L855,201L952,90Z" fill="#fabc86" stroke="#fabc86"/><path d="M952,90L855,201L1018,187Z" fill="#f9b67d" stroke="#f9b67d"/><path d="M952,90L1018,187L1180,111Z" fill="#f7b17b" stroke="#f7b17b"/><path d="M1180,111L1018,187L1147,277Z" fill="#f6a86a" stroke="#f6a86a"/><path d="M1180,111L1147,277L1247,257Z" fill="#f4a061" stroke="#f4a061"/><path d="M1180,111L1247,257L1307,72Z" fill="#f3a269" stroke="#f3a269"/><path d="M1307,72L1247,257L1379,237Z" fill="#f29a5c" stroke="#f29a5c"/><path d="M1307,72L1379,237L1380,82Z" fill="#f19c64" stroke="#f19c64"/><path d="M1380,82L1379,237L1530,103Z" fill="#f09561" stroke="#f09561"/><path d="M1530,103L1379,237L1581,202Z" fill="#ef8e5a" stroke="#ef8e5a"/><path d="M1530,103L1581,202L1687,221Z" fill="#ed875b" stroke="#ed875b"/><path d="M1530,103L1687,221L1778,32Z" fill="#ec8665" stroke="#ec8665"/><path d="M1778,32L1687,221L1853,107Z" fill="#ea7f65" stroke="#ea7f65"/><path d="M1853,107L1687,221L1884,186Z" fill="#e9795c" stroke="#e9795c"/><path d="M1853,107L1884,186L2023,101Z" fill="#e77663" stroke="#e77663"/><path d="M2023,101L1884,186L2007,259Z" fill="#e6725a" stroke="#e6725a"/><path d="M2023,101L2007,259L2068,362Z" fill="#e56e4f" stroke="#e56e4f"/><path d="M-119,284L-133,646L-37,429Z" fill="#ffc99c" stroke="#ffc99c"/><path d="M-119,284L-37,429L73,237Z" fill="#ffdcaa" stroke="#ffdcaa"/><path d="M73,237L-37,429L85,385Z" fill="#ffd4a0" stroke="#ffd4a0"/><path d="M73,237L85,385L174,223Z" fill="#ffd9a6" stroke="#ffd9a6"/><path d="M174,223L85,385L276,356Z" fill="#ffd399" stroke="#ffd399"/><path d="M174,223L276,356L361,212Z" fill="#ffd39d" stroke="#ffd39d"/><path d="M361,212L276,356L386,346Z" fill="#fecd90" stroke="#fecd90"/><path d="M361,212L386,346L504,265Z" fill="#fecc8f" stroke="#fecc8f"/><path d="M504,265L386,346L478,337Z" fill="#fec785" stroke="#fec785"/><path d="M504,265L478,337L621,392Z" fill="#fec27c" stroke="#fec27c"/><path d="M504,265L621,392L654,274Z" fill="#fec27b" stroke="#fec27b"/><path d="M654,274L621,392L811,428Z" fill="#fdb46b" stroke="#fdb46b"/><path d="M654,274L811,428L855,201Z" fill="#fcb76f" stroke="#fcb76f"/><path d="M855,201L811,428L1014,420Z" fill="#faa95f" stroke="#faa95f"/><path d="M855,201L1014,420L1018,187Z" fill="#f8ac68" stroke="#f8ac68"/><path d="M1018,187L1014,420L1095,367Z" fill="#f7a258" stroke="#f7a258"/><path d="M1018,187L1095,367L1147,277Z" fill="#f6a35d" stroke="#f6a35d"/><path d="M1147,277L1095,367L1292,432Z" fill="#f59349" stroke="#f59349"/><path d="M1147,277L1292,432L1247,257Z" fill="#f4964a" stroke="#f4964a"/><path d="M1247,257L1292,432L1378,359Z" fill="#f28c40" stroke="#f28c40"/><path d="M1247,257L1378,359L1379,237Z" fill="#f29149" stroke="#f29149"/><path d="M1379,237L1378,359L1563,387Z" fill="#f0863f" stroke="#f0863f"/><path d="M1379,237L1563,387L1581,202Z" fill="#ef8649" stroke="#ef8649"/><path d="M1581,202L1563,387L1707,340Z" fill="#ed7c42" stroke="#ed7c42"/><path d="M1581,202L1707,340L1687,221Z" fill="#ec7d4c" stroke="#ec7d4c"/><path d="M1687,221L1707,340L1840,360Z" fill="#ea7343" stroke="#ea7343"/><path d="M1687,221L1840,360L1884,186Z" fill="#e9734c" stroke="#e9734c"/><path d="M1884,186L1840,360L2007,259Z" fill="#e76c4a" stroke="#e76c4a"/><path d="M2007,259L1840,360L2068,362Z" fill="#e6673f" stroke="#e6673f"/><path d="M-37,429L-133,646L-56,560Z" fill="#ffba8d" stroke="#ffba8d"/><path d="M-37,429L-56,560L89,538Z" fill="#ffbc8c" stroke="#ffbc8c"/><path d="M-37,429L89,538L85,385Z" fill="#ffc491" stroke="#ffc491"/><path d="M85,385L89,538L189,522Z" fill="#ffbb87" stroke="#ffbb87"/><path d="M85,385L189,522L276,356Z" fill="#ffc38b" stroke="#ffc38b"/><path d="M276,356L189,522L363,507Z" fill="#ffb87e" stroke="#ffb87e"/><path d="M276,356L363,507L386,346Z" fill="#febf81" stroke="#febf81"/><path d="M386,346L363,507L478,337Z" fill="#febd7d" stroke="#febd7d"/><path d="M478,337L363,507L522,515Z" fill="#feb171" stroke="#feb171"/><path d="M478,337L522,515L621,392Z" fill="#feb470" stroke="#feb470"/><path d="M621,392L522,515L649,579Z" fill="#fea460" stroke="#fea460"/><path d="M621,392L649,579L811,428Z" fill="#fda45d" stroke="#fda45d"/><path d="M811,428L649,579L821,546Z" fill="#fc9651" stroke="#fc9651"/><path d="M811,428L821,546L955,542Z" fill="#fa914b" stroke="#fa914b"/><path d="M811,428L955,542L1014,420Z" fill="#f9944c" stroke="#f9944c"/><path d="M1014,420L955,542L1160,565Z" fill="#f7843d" stroke="#f7843d"/><path d="M1014,420L1160,565L1095,367Z" fill="#f68a42" stroke="#f68a42"/><path d="M1095,367L1160,565L1247,507Z" fill="#f58138" stroke="#f58138"/><path d="M1095,367L1247,507L1292,432Z" fill="#f4853b" stroke="#f4853b"/><path d="M1292,432L1247,507L1374,512Z" fill="#f2762d" stroke="#f2762d"/><path d="M1292,432L1374,512L1378,359Z" fill="#f27b31" stroke="#f27b31"/><path d="M1378,359L1374,512L1525,509Z" fill="#f0722c" stroke="#f0722c"/><path d="M1378,359L1525,509L1563,387Z" fill="#ef7432" stroke="#ef7432"/><path d="M1563,387L1525,509L1707,502Z" fill="#ed652b" stroke="#ed652b"/><path d="M1563,387L1707,502L1707,340Z" fill="#ec6a33" stroke="#ec6a33"/><path d="M1707,340L1707,502L1840,360Z" fill="#ea6535" stroke="#ea6535"/><path d="M1840,360L1707,502L1874,487Z" fill="#e9592e" stroke="#e9592e"/><path d="M1840,360L1874,487L2068,362Z" fill="#e75b34" stroke="#e75b34"/><path d="M2068,362L1874,487L2039,556Z" fill="#e6502b" stroke="#e6502b"/><path d="M2068,362L2039,556L2073,826Z" fill="#e53d1b" stroke="#e53d1b"/><path d="M-56,560L-133,646L44,640Z" fill="#ffad81" stroke="#ffad81"/><path d="M-56,560L44,640L89,538Z" fill="#ffb080" stroke="#ffb080"/><path d="M89,538L44,640L189,522Z" fill="#ffae7c" stroke="#ffae7c"/><path d="M189,522L44,640L265,712Z" fill="#ffa26f" stroke="#ffa26f"/><path d="M189,522L265,712L363,507Z" fill="#ffa56d" stroke="#ffa56d"/><path d="M363,507L265,712L395,733Z" fill="#fe965e" stroke="#fe965e"/><path d="M363,507L395,733L522,515Z" fill="#fe9d60" stroke="#fe9d60"/><path d="M522,515L395,733L574,641Z" fill="#fe9355" stroke="#fe9355"/><path d="M522,515L574,641L649,579Z" fill="#fe9755" stroke="#fe9755"/><path d="M649,579L574,641L733,669Z" fill="#fe8b49" stroke="#fe8b49"/><path d="M649,579L733,669L821,546Z" fill="#fd8b47" stroke="#fd8b47"/><path d="M821,546L733,669L788,722Z" fill="#fc803d" stroke="#fc803d"/><path d="M821,546L788,722L948,625Z" fill="#fa7d3a" stroke="#fa7d3a"/><path d="M821,546L948,625L955,542Z" fill="#f9843e" stroke="#f9843e"/><path d="M955,542L948,625L1087,638Z" fill="#f87834" stroke="#f87834"/><path d="M955,542L1087,638L1160,565Z" fill="#f77731" stroke="#f77731"/><path d="M1160,565L1087,638L1243,721Z" fill="#f56621" stroke="#f56621"/><path d="M1160,565L1243,721L1247,507Z" fill="#f46a24" stroke="#f46a24"/><path d="M1247,507L1243,721L1386,643Z" fill="#f3601a" stroke="#f3601a"/><path d="M1247,507L1386,643L1374,512Z" fill="#f26821" stroke="#f26821"/><path d="M1374,512L1386,643L1525,509Z" fill="#f0621f" stroke="#f0621f"/><path d="M1525,509L1386,643L1595,688Z" fill="#ef5316" stroke="#ef5316"/><path d="M1525,509L1595,688L1707,502Z" fill="#ed531d" stroke="#ed531d"/><path d="M1707,502L1595,688L1753,636Z" fill="#eb4717" stroke="#eb4717"/><path d="M1707,502L1753,636L1874,487Z" fill="#ea4c21" stroke="#ea4c21"/><path d="M1874,487L1753,636L1856,677Z" fill="#e93f18" stroke="#e93f18"/><path d="M1874,487L1856,677L1992,616Z" fill="#e73b19" stroke="#e73b19"/><path d="M1874,487L1992,616L2039,556Z" fill="#e6421f" stroke="#e6421f"/><path d="M2039,556L1992,616L2073,826Z" fill="#e52f0f" stroke="#e52f0f"/><path d="M-133,646L-79,1174L-64,844Z" fill="#ff826e" stroke="#ff826e"/><path d="M-133,646L-64,844L44,640Z" fill="#ff9d74" stroke="#ff9d74"/><path d="M44,640L-64,844L43,828Z" fill="#ff9167" stroke="#ff9167"/><path d="M44,640L43,828L265,712Z" fill="#ff9464" stroke="#ff9464"/><path d="M265,712L43,828L208,859Z" fill="#ff855a" stroke="#ff855a"/><path d="M265,712L208,859L368,855Z" fill="#ff7f52" stroke="#ff7f52"/><path d="M265,712L368,855L395,733Z" fill="#fe834d" stroke="#fe834d"/><path d="M395,733L368,855L574,804Z" fill="#fe7945" stroke="#fe7945"/><path d="M395,733L574,804L574,641Z" fill="#fe8245" stroke="#fe8245"/><path d="M574,641L574,804L733,669Z" fill="#fe8140" stroke="#fe8140"/><path d="M733,669L574,804L639,873Z" fill="#fe7335" stroke="#fe7335"/><path d="M733,669L639,873L793,802Z" fill="#fd6e30" stroke="#fd6e30"/><path d="M733,669L793,802L788,722Z" fill="#fc7332" stroke="#fc7332"/><path d="M788,722L793,802L944,817Z" fill="#fb6627" stroke="#fb6627"/><path d="M788,722L944,817L948,625Z" fill="#fa6c2a" stroke="#fa6c2a"/><path d="M948,625L944,817L1087,638Z" fill="#f86927" stroke="#f86927"/><path d="M1087,638L944,817L1111,784Z" fill="#f75d1b" stroke="#f75d1b"/><path d="M1087,638L1111,784L1243,721Z" fill="#f55b19" stroke="#f55b19"/><path d="M1243,721L1111,784L1243,835Z" fill="#f44d0d" stroke="#f44d0d"/><path d="M1243,721L1243,835L1392,871Z" fill="#f34206" stroke="#f34206"/><path d="M1243,721L1392,871L1386,643Z" fill="#f24906" stroke="#f24906"/><path d="M1386,643L1392,871L1595,688Z" fill="#f04205" stroke="#f04205"/><path d="M1595,688L1392,871L1591,843Z" fill="#ee3300" stroke="#ee3300"/><path d="M1595,688L1591,843L1767,837Z" fill="#ec2c00" stroke="#ec2c00"/><path d="M1595,688L1767,837L1753,636Z" fill="#eb3407" stroke="#eb3407"/><path d="M1753,636L1767,837L1856,677Z" fill="#ea2e08" stroke="#ea2e08"/><path d="M1856,677L1767,837L1840,870Z" fill="#e91f00" stroke="#e91f00"/><path d="M1856,677L1840,870L2073,826Z" fill="#e71b00" stroke="#e71b00"/><path d="M1856,677L2073,826L1992,616Z" fill="#e62909" stroke="#e62909"/><path d="M-64,844L-79,1174L-38,994Z" fill="#ff766c" stroke="#ff766c"/><path d="M-64,844L-38,994L26,947Z" fill="#ff7869" stroke="#ff7869"/><path d="M-64,844L26,947L43,828Z" fill="#ff8167" stroke="#ff8167"/><path d="M43,828L26,947L208,859Z" fill="#ff7c60" stroke="#ff7c60"/><path d="M208,859L26,947L210,1020Z" fill="#ff6f5c" stroke="#ff6f5c"/><path d="M208,859L210,1020L327,1010Z" fill="#ff6854" stroke="#ff6854"/><path d="M208,859L327,1010L368,855Z" fill="#ff6e50" stroke="#ff6e50"/><path d="M368,855L327,1010L496,991Z" fill="#fe6249" stroke="#fe6249"/><path d="M368,855L496,991L574,804Z" fill="#fe6a42" stroke="#fe6a42"/><path d="M574,804L496,991L639,873Z" fill="#fe653b" stroke="#fe653b"/><path d="M639,873L496,991L638,976Z" fill="#fe5a3a" stroke="#fe5a3a"/><path d="M639,873L638,976L829,1028Z" fill="#fd5331" stroke="#fd5331"/><path d="M639,873L829,1028L793,802Z" fill="#fc582d" stroke="#fc582d"/><path d="M793,802L829,1028L944,817Z" fill="#fa5426" stroke="#fa5426"/><path d="M944,817L829,1028L1017,926Z" fill="#f94820" stroke="#f94820"/><path d="M944,817L1017,926L1111,784Z" fill="#f74f1a" stroke="#f74f1a"/><path d="M1111,784L1017,926L1154,1002Z" fill="#f64014" stroke="#f64014"/><path d="M1111,784L1154,1002L1243,835Z" fill="#f53f0f" stroke="#f53f0f"/><path d="M1243,835L1154,1002L1233,1017Z" fill="#f4300c" stroke="#f4300c"/><path d="M1243,835L1233,1017L1392,871Z" fill="#f33206" stroke="#f33206"/><path d="M1392,871L1233,1017L1324,1100Z" fill="#f22804" stroke="#f22804"/><path d="M1392,871L1324,1100L1471,963Z" fill="#f12300" stroke="#f12300"/><path d="M1392,871L1471,963L1522,929Z" fill="#ef2400" stroke="#ef2400"/><path d="M1392,871L1522,929L1591,843Z" fill="#ef2700" stroke="#ef2700"/><path d="M1591,843L1522,929L1734,973Z" fill="#ed1a00" stroke="#ed1a00"/><path d="M1591,843L1734,973L1767,837Z" fill="#eb1900" stroke="#eb1900"/><path d="M1767,837L1734,973L1840,870Z" fill="#ea1200" stroke="#ea1200"/><path d="M1840,870L1734,973L1825,1030Z" fill="#e90700" stroke="#e90700"/><path d="M1840,870L1825,1030L1981,977Z" fill="#e80100" stroke="#e80100"/><path d="M1840,870L1981,977L2073,826Z" fill="#e60b00" stroke="#e60b00"/><path d="M2073,826L1981,977L2002,1081Z" fill="#e50000" stroke="#e50000"/><path d="M-38,994L-79,1174L56,1167Z" fill="#ff7469" stroke="#ff7469"/><path d="M-38,994L56,1167L26,947Z" fill="#ff7366" stroke="#ff7366"/><path d="M26,947L56,1167L190,1117Z" fill="#ff6f60" stroke="#ff6f60"/><path d="M26,947L190,1117L210,1020Z" fill="#ff6d5c" stroke="#ff6d5c"/><path d="M210,1020L190,1117L327,1010Z" fill="#ff6955" stroke="#ff6955"/><path d="M327,1010L190,1117L423,1158Z" fill="#ff664f" stroke="#ff664f"/><path d="M327,1010L423,1158L488,1110Z" fill="#fe6147" stroke="#fe6147"/><path d="M327,1010L488,1110L496,991Z" fill="#fe6045" stroke="#fe6045"/><path d="M496,991L488,1110L638,976Z" fill="#fe5c3d" stroke="#fe5c3d"/><path d="M638,976L488,1110L718,1161Z" fill="#fe5838" stroke="#fe5838"/><path d="M638,976L718,1161L829,1028Z" fill="#fd512f" stroke="#fd512f"/><path d="M829,1028L718,1161L827,1125Z" fill="#fc4d2b" stroke="#fc4d2b"/><path d="M829,1028L827,1125L996,1163Z" fill="#fa4624" stroke="#fa4624"/><path d="M829,1028L996,1163L1017,926Z" fill="#f9421f" stroke="#f9421f"/><path d="M1017,926L996,1163L1154,1002Z" fill="#f73a17" stroke="#f73a17"/><path d="M1154,1002L996,1163L1169,1177Z" fill="#f63714" stroke="#f63714"/><path d="M1154,1002L1169,1177L1233,1017Z" fill="#f4310e" stroke="#f4310e"/><path d="M1233,1017L1169,1177L1324,1100Z" fill="#f32d0a" stroke="#f32d0a"/><path d="M1471,963L1324,1100L1459,1115Z" fill="#f02100" stroke="#f02100"/><path d="M1471,963L1459,1115L1602,1156Z" fill="#ef1b00" stroke="#ef1b00"/><path d="M1471,963L1602,1156L1522,929Z" fill="#ee1900" stroke="#ee1900"/><path d="M1522,929L1602,1156L1734,973Z" fill="#ed1300" stroke="#ed1300"/><path d="M1734,973L1602,1156L1690,1154Z" fill="#ec0f00" stroke="#ec0f00"/><path d="M1734,973L1690,1154L1825,1030Z" fill="#ea0a00" stroke="#ea0a00"/><path d="M1825,1030L1690,1154L1850,1081Z" fill="#ea0700" stroke="#ea0700"/><path d="M1825,1030L1850,1081L1981,977Z" fill="#e80100" stroke="#e80100"/><path d="M1981,977L1850,1081L2002,1081Z" fill="#e70000" stroke="#e70000"/><path d="M-79,1174L1169,1177L718,1161Z" fill="#fe5939" stroke="#fe5939"/><path d="M-79,1174L718,1161L423,1158Z" fill="#fe644c" stroke="#fe644c"/><path d="M-79,1174L423,1158L56,1167Z" fill="#ff6d5d" stroke="#ff6d5d"/><path d="M56,1167L423,1158L190,1117Z" fill="#ff6956" stroke="#ff6956"/><path d="M423,1158L718,1161L488,1110Z" fill="#fe5b3d" stroke="#fe5b3d"/><path d="M718,1161L1169,1177L996,1163Z" fill="#f8411e" stroke="#f8411e"/><path d="M718,1161L996,1163L827,1125Z" fill="#fb4927" stroke="#fb4927"/><path d="M1169,1177L1690,1154L1602,1156Z" fill="#ef1c00" stroke="#ef1c00"/><path d="M1169,1177L1602,1156L1459,1115Z" fill="#f02200" stroke="#f02200"/><path d="M1169,1177L1459,1115L1324,1100Z" fill="#f22804" stroke="#f22804"/><path d="M1690,1154L2002,1081L1850,1081Z" fill="#e90300" stroke="#e90300"/></g></svg>