<svg width="1920" style="opacity:0.8" height="969" xmlns="http://www.w3.org/2000/svg"><g><path d="M-54,-94L-131,519L-97,270Z" fill="#fcfdff" stroke="#fcfdff"/><path d="M-54,-94L-97,270L-63,18Z" fill="#fffeff" stroke="#fffeff"/><path d="M-54,-94L-63,18L26,-105Z" fill="#fffdfe" stroke="#fffdfe"/><path d="M26,-105L-63,18L46,50Z" fill="#fffbfd" stroke="#fffbfd"/><path d="M26,-105L46,50L224,-35Z" fill="#fbf7fb" stroke="#fbf7fb"/><path d="M26,-105L224,-35L379,-66Z" fill="#f7f2f8" stroke="#f7f2f8"/><path d="M26,-105L379,-66L559,-102Z" fill="#f1eef6" stroke="#f1eef6"/><path d="M26,-105L559,-102L788,-110Z" fill="#e9e9f3" stroke="#e9e9f3"/><path d="M26,-105L788,-110L1301,-118Z" fill="#d4dfee" stroke="#d4dfee"/><path d="M26,-105L1301,-118L1592,-124Z" fill="#b2d4e7" stroke="#b2d4e7"/><path d="M224,-35L46,50L175,55Z" fill="#f9f5fa" stroke="#f9f5fa"/><path d="M224,-35L175,55L360,110Z" fill="#f5f0f7" stroke="#f5f0f7"/><path d="M224,-35L360,110L379,-66Z" fill="#f1eef6" stroke="#f1eef6"/><path d="M379,-66L360,110L556,22Z" fill="#ebeaf4" stroke="#ebeaf4"/><path d="M379,-66L556,22L559,-102Z" fill="#e6e8f2" stroke="#e6e8f2"/><path d="M559,-102L556,22L640,-19Z" fill="#dfe4f0" stroke="#dfe4f0"/><path d="M559,-102L640,-19L788,-110Z" fill="#d8e1ef" stroke="#d8e1ef"/><path d="M640,-19L556,22L656,132Z" fill="#dce3f0" stroke="#dce3f0"/><path d="M640,-19L656,132L865,35Z" fill="#d3deed" stroke="#d3deed"/><path d="M640,-19L865,35L788,-110Z" fill="#cddcec" stroke="#cddcec"/><path d="M788,-110L865,35L941,-102Z" fill="#c0d8ea" stroke="#c0d8ea"/><path d="M788,-110L941,-102L1301,-118Z" fill="#aed2e6" stroke="#aed2e6"/><path d="M941,-102L865,35L982,111Z" fill="#b7d6e8" stroke="#b7d6e8"/><path d="M941,-102L982,111L1130,-64Z" fill="#add1e5" stroke="#add1e5"/><path d="M941,-102L1130,-64L1301,-118Z" fill="#a3cce2" stroke="#a3cce2"/><path d="M1130,-64L982,111L1164,126Z" fill="#a6cde3" stroke="#a6cde3"/><path d="M1130,-64L1164,126L1272,95Z" fill="#9cc8e0" stroke="#9cc8e0"/><path d="M1130,-64L1272,95L1301,-118Z" fill="#97c7dc" stroke="#97c7dc"/><path d="M1301,-118L1272,95L1476,-32Z" fill="#8bc3cf" stroke="#8bc3cf"/><path d="M1301,-118L1476,-32L1592,-124Z" fill="#81bfc3" stroke="#81bfc3"/><path d="M1476,-32L1272,95L1476,38Z" fill="#84c1c8" stroke="#84c1c8"/><path d="M1476,-32L1476,38L1600,26Z" fill="#81bcbb" stroke="#81bcbb"/><path d="M1476,-32L1600,26L1592,-124Z" fill="#81b9b7" stroke="#81b9b7"/><path d="M1592,-124L1600,26L1730,-51Z" fill="#80b4ad" stroke="#80b4ad"/><path d="M1592,-124L1730,-51L1839,-112Z" fill="#80afa3" stroke="#80afa3"/><path d="M1730,-51L1600,26L1723,84Z" fill="#80b1a7" stroke="#80b1a7"/><path d="M1730,-51L1723,84L1842,129Z" fill="#80ad9d" stroke="#80ad9d"/><path d="M1730,-51L1842,129L1839,-112Z" fill="#80aa99" stroke="#80aa99"/><path d="M1839,-112L1842,129L2020,49Z" fill="#80a48d" stroke="#80a48d"/><path d="M1839,-112L2020,49L2025,-48Z" fill="#80a186" stroke="#80a186"/><path d="M2025,-48L2020,49L2058,221Z" fill="#809c80" stroke="#809c80"/><path d="M-63,18L-97,270L31,248Z" fill="#fefcfe" stroke="#fefcfe"/><path d="M-63,18L31,248L46,50Z" fill="#fffbfd" stroke="#fffbfd"/><path d="M46,50L31,248L175,55Z" fill="#fcf8fb" stroke="#fcf8fb"/><path d="M175,55L31,248L271,259Z" fill="#f7f3fa" stroke="#f7f3fa"/><path d="M175,55L271,259L360,110Z" fill="#f4eff7" stroke="#f4eff7"/><path d="M360,110L271,259L426,278Z" fill="#edeaf5" stroke="#edeaf5"/><path d="M360,110L426,278L536,208Z" fill="#e8e8f4" stroke="#e8e8f4"/><path d="M360,110L536,208L556,22Z" fill="#e7e8f3" stroke="#e7e8f3"/><path d="M556,22L536,208L656,132Z" fill="#dfe4f0" stroke="#dfe4f0"/><path d="M656,132L536,208L616,281Z" fill="#dbe1f0" stroke="#dbe1f0"/><path d="M656,132L616,281L770,214Z" fill="#d4deee" stroke="#d4deee"/><path d="M656,132L770,214L865,35Z" fill="#cddcec" stroke="#cddcec"/><path d="M865,35L770,214L982,111Z" fill="#bfd8e9" stroke="#bfd8e9"/><path d="M982,111L770,214L991,257Z" fill="#b7d4e8" stroke="#b7d4e8"/><path d="M982,111L991,257L1115,254Z" fill="#aacfe5" stroke="#aacfe5"/><path d="M982,111L1115,254L1164,126Z" fill="#a5cde3" stroke="#a5cde3"/><path d="M1164,126L1115,254L1265,271Z" fill="#9ac6e0" stroke="#9ac6e0"/><path d="M1164,126L1265,271L1272,95Z" fill="#96c6dc" stroke="#96c6dc"/><path d="M1272,95L1265,271L1424,180Z" fill="#8cc2d2" stroke="#8cc2d2"/><path d="M1272,95L1424,180L1476,38Z" fill="#86c2ca" stroke="#86c2ca"/><path d="M1476,38L1424,180L1600,214Z" fill="#80bcbe" stroke="#80bcbe"/><path d="M1476,38L1600,214L1600,26Z" fill="#81b9b6" stroke="#81b9b6"/><path d="M1600,26L1600,214L1723,84Z" fill="#80b4ac" stroke="#80b4ac"/><path d="M1723,84L1600,214L1751,167Z" fill="#7fb0a6" stroke="#7fb0a6"/><path d="M1723,84L1751,167L1842,129Z" fill="#80ac9d" stroke="#80ac9d"/><path d="M1842,129L1751,167L1934,201Z" fill="#7ea794" stroke="#7ea794"/><path d="M1842,129L1934,201L2020,49Z" fill="#80a389" stroke="#80a389"/><path d="M2020,49L1934,201L2058,221Z" fill="#7f9d81" stroke="#7f9d81"/><path d="M-97,270L-131,519L-51,319Z" fill="#e1f0ff" stroke="#e1f0ff"/><path d="M-97,270L-51,319L31,248Z" fill="#f4f6fe" stroke="#f4f6fe"/><path d="M31,248L-51,319L126,433Z" fill="#e7eefc" stroke="#e7eefc"/><path d="M31,248L126,433L196,321Z" fill="#e4eafb" stroke="#e4eafb"/><path d="M31,248L196,321L271,259Z" fill="#eeedf9" stroke="#eeedf9"/><path d="M271,259L196,321L340,419Z" fill="#dee4f7" stroke="#dee4f7"/><path d="M271,259L340,419L426,278Z" fill="#dce3f6" stroke="#dce3f6"/><path d="M426,278L340,419L488,318Z" fill="#d4def4" stroke="#d4def4"/><path d="M426,278L488,318L536,208Z" fill="#dee3f3" stroke="#dee3f3"/><path d="M536,208L488,318L616,281Z" fill="#d9e0f1" stroke="#d9e0f1"/><path d="M616,281L488,318L657,419Z" fill="#c7d7f0" stroke="#c7d7f0"/><path d="M616,281L657,419L770,214Z" fill="#c6d7ee" stroke="#c6d7ee"/><path d="M770,214L657,419L879,350Z" fill="#b7d1ec" stroke="#b7d1ec"/><path d="M770,214L879,350L991,257Z" fill="#b4d2e9" stroke="#b4d2e9"/><path d="M991,257L879,350L972,414Z" fill="#9dc8e8" stroke="#9dc8e8"/><path d="M991,257L972,414L1115,254Z" fill="#9cc7e5" stroke="#9cc7e5"/><path d="M1115,254L972,414L1184,369Z" fill="#8dc0e3" stroke="#8dc0e3"/><path d="M1115,254L1184,369L1265,271Z" fill="#8dc0e0" stroke="#8dc0e0"/><path d="M1265,271L1184,369L1314,390Z" fill="#7cb9da" stroke="#7cb9da"/><path d="M1265,271L1314,390L1456,372Z" fill="#73b6cf" stroke="#73b6cf"/><path d="M1265,271L1456,372L1424,180Z" fill="#7dbccb" stroke="#7dbccb"/><path d="M1424,180L1456,372L1523,348Z" fill="#71b6c1" stroke="#71b6c1"/><path d="M1424,180L1523,348L1600,214Z" fill="#7cb8bc" stroke="#7cb8bc"/><path d="M1600,214L1523,348L1753,378Z" fill="#6eabae" stroke="#6eabae"/><path d="M1600,214L1753,378L1751,167Z" fill="#7baca5" stroke="#7baca5"/><path d="M1751,167L1753,378L1934,201Z" fill="#7ba698" stroke="#7ba698"/><path d="M1934,201L1753,378L1909,410Z" fill="#6a9b91" stroke="#6a9b91"/><path d="M1934,201L1909,410L2058,221Z" fill="#759a85" stroke="#759a85"/><path d="M2058,221L1909,410L2034,434Z" fill="#659081" stroke="#659081"/><path d="M2058,221L2034,434L2074,627Z" fill="#4f867e" stroke="#4f867e"/><path d="M-51,319L-131,519L23,478Z" fill="#cbe7fc" stroke="#cbe7fc"/><path d="M-51,319L23,478L126,433Z" fill="#d3e6fb" stroke="#d3e6fb"/><path d="M126,433L23,478L237,492Z" fill="#bddcf7" stroke="#bddcf7"/><path d="M126,433L237,492L196,321Z" fill="#cbdff7" stroke="#cbdff7"/><path d="M196,321L237,492L340,419Z" fill="#caddf6" stroke="#caddf6"/><path d="M340,419L237,492L366,584Z" fill="#acd2f1" stroke="#acd2f1"/><path d="M340,419L366,584L569,556Z" fill="#a0cbed" stroke="#a0cbed"/><path d="M340,419L569,556L488,318Z" fill="#b7d3f1" stroke="#b7d3f1"/><path d="M488,318L569,556L657,419Z" fill="#aecfef" stroke="#aecfef"/><path d="M657,419L569,556L688,574Z" fill="#90c3e9" stroke="#90c3e9"/><path d="M657,419L688,574L779,512Z" fill="#8ec2e8" stroke="#8ec2e8"/><path d="M657,419L779,512L879,350Z" fill="#9cc7ea" stroke="#9cc7ea"/><path d="M879,350L779,512L972,414Z" fill="#8fc3e7" stroke="#8fc3e7"/><path d="M972,414L779,512L970,571Z" fill="#75bae4" stroke="#75bae4"/><path d="M972,414L970,571L1140,482Z" fill="#69b5e1" stroke="#69b5e1"/><path d="M972,414L1140,482L1184,369Z" fill="#77b8e1" stroke="#77b8e1"/><path d="M1184,369L1140,482L1277,472Z" fill="#66b1dd" stroke="#66b1dd"/><path d="M1184,369L1277,472L1314,390Z" fill="#69b2d8" stroke="#69b2d8"/><path d="M1314,390L1277,472L1409,582Z" fill="#4ba9cd" stroke="#4ba9cd"/><path d="M1314,390L1409,582L1456,372Z" fill="#4faac7" stroke="#4faac7"/><path d="M1456,372L1409,582L1623,521Z" fill="#3da1b9" stroke="#3da1b9"/><path d="M1456,372L1623,521L1523,348Z" fill="#55a7b8" stroke="#55a7b8"/><path d="M1523,348L1623,521L1717,481Z" fill="#499eac" stroke="#499eac"/><path d="M1523,348L1717,481L1753,378Z" fill="#58a0a8" stroke="#58a0a8"/><path d="M1753,378L1717,481L1845,476Z" fill="#4a959a" stroke="#4a959a"/><path d="M1753,378L1845,476L1909,410Z" fill="#519493" stroke="#519493"/><path d="M1909,410L1845,476L1968,559Z" fill="#3f8a88" stroke="#3f8a88"/><path d="M1909,410L1968,559L2034,434Z" fill="#438781" stroke="#438781"/><path d="M2034,434L1968,559L2074,627Z" fill="#307b78" stroke="#307b78"/><path d="M-131,519L-97,1184L-111,782Z" fill="#91beb5" stroke="#91beb5"/><path d="M-131,519L-111,782L-41,712Z" fill="#98d1e1" stroke="#98d1e1"/><path d="M-131,519L-41,712L20,682Z" fill="#9cd1e9" stroke="#9cd1e9"/><path d="M-131,519L20,682L23,478Z" fill="#abd9f4" stroke="#abd9f4"/><path d="M23,478L20,682L237,492Z" fill="#aad4f2" stroke="#aad4f2"/><path d="M237,492L20,682L265,681Z" fill="#97c9e9" stroke="#97c9e9"/><path d="M237,492L265,681L366,584Z" fill="#98c8eb" stroke="#98c8eb"/><path d="M366,584L265,681L346,667Z" fill="#8dc1de" stroke="#8dc1de"/><path d="M366,584L346,667L556,646Z" fill="#89bfe0" stroke="#89bfe0"/><path d="M366,584L556,646L569,556Z" fill="#89bfe6" stroke="#89bfe6"/><path d="M569,556L556,646L634,675Z" fill="#7cb9de" stroke="#7cb9de"/><path d="M569,556L634,675L688,574Z" fill="#7cb9e3" stroke="#7cb9e3"/><path d="M688,574L634,675L870,709Z" fill="#6cb1d3" stroke="#6cb1d3"/><path d="M688,574L870,709L779,512Z" fill="#6eb3df" stroke="#6eb3df"/><path d="M779,512L870,709L970,571Z" fill="#61afdd" stroke="#61afdd"/><path d="M970,571L870,709L1008,644Z" fill="#51a9d1" stroke="#51a9d1"/><path d="M970,571L1008,644L1120,638Z" fill="#4ba6d5" stroke="#4ba6d5"/><path d="M970,571L1120,638L1140,482Z" fill="#52aada" stroke="#52aada"/><path d="M1140,482L1120,638L1283,628Z" fill="#43a2d5" stroke="#43a2d5"/><path d="M1140,482L1283,628L1277,472Z" fill="#4ba7d5" stroke="#4ba7d5"/><path d="M1277,472L1283,628L1409,582Z" fill="#39a0c8" stroke="#39a0c8"/><path d="M1409,582L1283,628L1471,693Z" fill="#2396b6" stroke="#2396b6"/><path d="M1409,582L1471,693L1558,640Z" fill="#1d92aa" stroke="#1d92aa"/><path d="M1409,582L1558,640L1623,521Z" fill="#2794af" stroke="#2794af"/><path d="M1623,521L1558,640L1673,662Z" fill="#218ca2" stroke="#218ca2"/><path d="M1623,521L1673,662L1717,481Z" fill="#2d8fa0" stroke="#2d8fa0"/><path d="M1717,481L1673,662L1859,648Z" fill="#238593" stroke="#238593"/><path d="M1717,481L1859,648L1845,476Z" fill="#318990" stroke="#318990"/><path d="M1845,476L1859,648L1968,559Z" fill="#2b8185" stroke="#2b8185"/><path d="M1968,559L1859,648L2074,627Z" fill="#207677" stroke="#207677"/><path d="M-41,712L-111,782L37,790Z" fill="#91c5c7" stroke="#91c5c7"/><path d="M-41,712L37,790L20,682Z" fill="#91c9cf" stroke="#91c9cf"/><path d="M20,682L37,790L265,681Z" fill="#8ec5d0" stroke="#8ec5d0"/><path d="M265,681L37,790L270,799Z" fill="#8abcc3" stroke="#8abcc3"/><path d="M265,681L270,799L346,667Z" fill="#86bdcc" stroke="#86bdcc"/><path d="M346,667L270,799L360,880Z" fill="#83b3b9" stroke="#83b3b9"/><path d="M346,667L360,880L558,792Z" fill="#7db0b7" stroke="#7db0b7"/><path d="M346,667L558,792L556,646Z" fill="#7cb7cc" stroke="#7cb7cc"/><path d="M556,646L558,792L634,675Z" fill="#73b3c9" stroke="#73b3c9"/><path d="M634,675L558,792L626,861Z" fill="#6faab4" stroke="#6faab4"/><path d="M634,675L626,861L870,709Z" fill="#66a9ba" stroke="#66a9ba"/><path d="M870,709L626,861L870,878Z" fill="#5c9ca5" stroke="#5c9ca5"/><path d="M870,709L870,878L996,811Z" fill="#4c99a6" stroke="#4c99a6"/><path d="M870,709L996,811L1008,644Z" fill="#46a2bb" stroke="#46a2bb"/><path d="M1008,644L996,811L1120,638Z" fill="#40a0bf" stroke="#40a0bf"/><path d="M1120,638L996,811L1071,842Z" fill="#3b97ac" stroke="#3b97ac"/><path d="M1120,638L1071,842L1332,792Z" fill="#2f92ab" stroke="#2f92ab"/><path d="M1120,638L1332,792L1283,628Z" fill="#2d97b8" stroke="#2d97b8"/><path d="M1283,628L1332,792L1471,693Z" fill="#1e92a6" stroke="#1e92a6"/><path d="M1471,693L1332,792L1414,869Z" fill="#16868b" stroke="#16868b"/><path d="M1471,693L1414,869L1629,850Z" fill="#137f79" stroke="#137f79"/><path d="M1471,693L1629,850L1558,640Z" fill="#138789" stroke="#138789"/><path d="M1558,640L1629,850L1673,662Z" fill="#138384" stroke="#138384"/><path d="M1673,662L1629,850L1709,884Z" fill="#127567" stroke="#127567"/><path d="M1673,662L1709,884L1905,776Z" fill="#127363" stroke="#127363"/><path d="M1673,662L1905,776L1859,648Z" fill="#167a73" stroke="#167a73"/><path d="M1859,648L1905,776L2074,627Z" fill="#177266" stroke="#177266"/><path d="M2074,627L1905,776L1996,870Z" fill="#12684c" stroke="#12684c"/><path d="M2074,627L1996,870L2050,1109Z" fill="#12552a" stroke="#12552a"/><path d="M-111,782L-97,1184L-17,1007Z" fill="#91a686" stroke="#91a686"/><path d="M-111,782L-17,1007L37,790Z" fill="#91b7aa" stroke="#91b7aa"/><path d="M37,790L-17,1007L38,996Z" fill="#90aa95" stroke="#90aa95"/><path d="M37,790L38,996L236,925Z" fill="#8dab9b" stroke="#8dab9b"/><path d="M37,790L236,925L270,799Z" fill="#8ab1ac" stroke="#8ab1ac"/><path d="M270,799L236,925L360,880Z" fill="#85a8a1" stroke="#85a8a1"/><path d="M360,880L236,925L404,986Z" fill="#829d8e" stroke="#829d8e"/><path d="M360,880L404,986L558,792Z" fill="#7ca099" stroke="#7ca099"/><path d="M558,792L404,986L506,1018Z" fill="#79988b" stroke="#79988b"/><path d="M558,792L506,1018L626,861Z" fill="#729b95" stroke="#729b95"/><path d="M626,861L506,1018L687,967Z" fill="#6f9083" stroke="#6f9083"/><path d="M626,861L687,967L870,878Z" fill="#64928e" stroke="#64928e"/><path d="M870,878L687,967L789,978Z" fill="#5d8a81" stroke="#5d8a81"/><path d="M870,878L789,978L977,1023Z" fill="#508479" stroke="#508479"/><path d="M870,878L977,1023L996,811Z" fill="#478988" stroke="#478988"/><path d="M996,811L977,1023L1071,842Z" fill="#408789" stroke="#408789"/><path d="M1071,842L977,1023L1183,1028Z" fill="#397973" stroke="#397973"/><path d="M1071,842L1183,1028L1241,1003Z" fill="#307671" stroke="#307671"/><path d="M1071,842L1241,1003L1332,792Z" fill="#2b7f85" stroke="#2b7f85"/><path d="M1332,792L1241,1003L1414,869Z" fill="#1f7a76" stroke="#1f7a76"/><path d="M1414,869L1241,1003L1422,1013Z" fill="#1c6e5d" stroke="#1c6e5d"/><path d="M1414,869L1422,1013L1577,996Z" fill="#136a52" stroke="#136a52"/><path d="M1414,869L1577,996L1629,850Z" fill="#136e58" stroke="#136e58"/><path d="M1629,850L1577,996L1674,999Z" fill="#126242" stroke="#126242"/><path d="M1629,850L1674,999L1709,884Z" fill="#126547" stroke="#126547"/><path d="M1709,884L1674,999L1931,1003Z" fill="#12582c" stroke="#12582c"/><path d="M1709,884L1931,1003L1905,776Z" fill="#125e38" stroke="#125e38"/><path d="M1905,776L1931,1003L1996,870Z" fill="#12592e" stroke="#12592e"/><path d="M1996,870L1931,1003L1983,975Z" fill="#124e18" stroke="#124e18"/><path d="M1996,870L1983,975L2050,1109Z" fill="#124609" stroke="#124609"/><path d="M-17,1007L-97,1184L111,1143Z" fill="#91917e" stroke="#91917e"/><path d="M-17,1007L111,1143L38,996Z" fill="#90987d" stroke="#90987d"/><path d="M38,996L111,1143L236,925Z" fill="#8c997b" stroke="#8c997b"/><path d="M236,925L111,1143L270,1175Z" fill="#898d79" stroke="#898d79"/><path d="M236,925L270,1175L378,1077Z" fill="#858c77" stroke="#858c77"/><path d="M236,925L378,1077L404,986Z" fill="#82947c" stroke="#82947c"/><path d="M404,986L378,1077L506,1018Z" fill="#7d8c74" stroke="#7d8c74"/><path d="M506,1018L378,1077L502,1160Z" fill="#7b8274" stroke="#7b8274"/><path d="M506,1018L502,1160L641,1107Z" fill="#747e72" stroke="#747e72"/><path d="M506,1018L641,1107L687,967Z" fill="#6e8470" stroke="#6e8470"/><path d="M687,967L641,1107L789,978Z" fill="#66826e" stroke="#66826e"/><path d="M789,978L641,1107L843,1153Z" fill="#60776d" stroke="#60776d"/><path d="M789,978L843,1153L956,1086Z" fill="#52746a" stroke="#52746a"/><path d="M789,978L956,1086L977,1023Z" fill="#4c7869" stroke="#4c7869"/><path d="M977,1023L956,1086L1144,1138Z" fill="#3f6b66" stroke="#3f6b66"/><path d="M977,1023L1144,1138L1183,1028Z" fill="#376a63" stroke="#376a63"/><path d="M1183,1028L1144,1138L1286,1114Z" fill="#2c6060" stroke="#2c6060"/><path d="M1183,1028L1286,1114L1241,1003Z" fill="#29665c" stroke="#29665c"/><path d="M1241,1003L1286,1114L1422,1013Z" fill="#206453" stroke="#206453"/><path d="M1422,1013L1286,1114L1484,1159Z" fill="#175a4a" stroke="#175a4a"/><path d="M1422,1013L1484,1159L1567,1079Z" fill="#13573f" stroke="#13573f"/><path d="M1422,1013L1567,1079L1577,996Z" fill="#135d3b" stroke="#135d3b"/><path d="M1577,996L1567,1079L1674,999Z" fill="#125931" stroke="#125931"/><path d="M1674,999L1567,1079L1666,1176Z" fill="#124e2e" stroke="#124e2e"/><path d="M1674,999L1666,1176L1906,1165Z" fill="#124320" stroke="#124320"/><path d="M1674,999L1906,1165L1931,1003Z" fill="#124615" stroke="#124615"/><path d="M1931,1003L1906,1165L2050,1109Z" fill="#123906" stroke="#123906"/><path d="M1931,1003L2050,1109L1983,975Z" fill="#124103" stroke="#124103"/><path d="M-97,1184L1666,1176L270,1175Z" fill="#6e6f70" stroke="#6e6f70"/><path d="M-97,1184L270,1175L111,1143Z" fill="#8e857c" stroke="#8e857c"/><path d="M270,1175L1666,1176L843,1153Z" fill="#4a6369" stroke="#4a6369"/><path d="M270,1175L843,1153L502,1160Z" fill="#757472" stroke="#757472"/><path d="M270,1175L502,1160L378,1077Z" fill="#7f7e75" stroke="#7f7e75"/><path d="M502,1160L843,1153L641,1107Z" fill="#6a736f" stroke="#6a736f"/><path d="M843,1153L1666,1176L1484,1159Z" fill="#1f5252" stroke="#1f5252"/><path d="M843,1153L1484,1159L1144,1138Z" fill="#315a62" stroke="#315a62"/><path d="M843,1153L1144,1138L956,1086Z" fill="#436767" stroke="#436767"/><path d="M1144,1138L1484,1159L1286,1114Z" fill="#215654" stroke="#215654"/><path d="M1484,1159L1666,1176L1567,1079Z" fill="#124a35" stroke="#124a35"/></g></svg>