<svg width="1920" height="969" xmlns="http://www.w3.org/2000/svg"><g><path d="M-72,-144L-130,403L-81,252Z" fill="#faffff" stroke="#faffff"/><path d="M-72,-144L-81,252L-31,119Z" fill="#feffff" stroke="#feffff"/><path d="M-72,-144L-31,119L16,44Z" fill="#fdffff" stroke="#fdffff"/><path d="M-72,-144L16,44L122,-139Z" fill="#fafdfe" stroke="#fafdfe"/><path d="M-72,-144L122,-139L289,-141Z" fill="#f6fafc" stroke="#f6fafc"/><path d="M-72,-144L289,-141L1584,-143Z" fill="#d7e3f0" stroke="#d7e3f0"/><path d="M122,-139L16,44L193,100Z" fill="#f6fafc" stroke="#f6fafc"/><path d="M122,-139L193,100L312,-96Z" fill="#f1f7fa" stroke="#f1f7fa"/><path d="M122,-139L312,-96L289,-141Z" fill="#f0f6fa" stroke="#f0f6fa"/><path d="M289,-141L312,-96L547,-60Z" fill="#e6eef6" stroke="#e6eef6"/><path d="M289,-141L547,-60L736,-81Z" fill="#dce7f2" stroke="#dce7f2"/><path d="M289,-141L736,-81L931,-104Z" fill="#d3e1ee" stroke="#d3e1ee"/><path d="M289,-141L931,-104L1584,-143Z" fill="#c7cde4" stroke="#c7cde4"/><path d="M312,-96L193,100L355,167Z" fill="#edf3f8" stroke="#edf3f8"/><path d="M312,-96L355,167L436,112Z" fill="#e7eff6" stroke="#e7eff6"/><path d="M312,-96L436,112L547,-60Z" fill="#e3ecf4" stroke="#e3ecf4"/><path d="M547,-60L436,112L486,110Z" fill="#dfe9f3" stroke="#dfe9f3"/><path d="M547,-60L486,110L619,88Z" fill="#dae6f1" stroke="#dae6f1"/><path d="M547,-60L619,88L736,-81Z" fill="#d5e2ef" stroke="#d5e2ef"/><path d="M736,-81L619,88L820,123Z" fill="#cfdded" stroke="#cfdded"/><path d="M736,-81L820,123L865,-76Z" fill="#cbd7e9" stroke="#cbd7e9"/><path d="M736,-81L865,-76L931,-104Z" fill="#cad4e8" stroke="#cad4e8"/><path d="M865,-76L820,123L990,33Z" fill="#c8d0e6" stroke="#c8d0e6"/><path d="M865,-76L990,33L931,-104Z" fill="#c7cde4" stroke="#c7cde4"/><path d="M931,-104L990,33L1118,-9Z" fill="#c6c6e0" stroke="#c6c6e0"/><path d="M931,-104L1118,-9L1239,-77Z" fill="#c6bfdd" stroke="#c6bfdd"/><path d="M931,-104L1239,-77L1584,-143Z" fill="#c5b1d6" stroke="#c5b1d6"/><path d="M1118,-9L990,33L1096,171Z" fill="#c6c1de" stroke="#c6c1de"/><path d="M1118,-9L1096,171L1184,136Z" fill="#c6bbdb" stroke="#c6bbdb"/><path d="M1118,-9L1184,136L1239,-77Z" fill="#c6b7d9" stroke="#c6b7d9"/><path d="M1239,-77L1184,136L1333,127Z" fill="#c5b1d6" stroke="#c5b1d6"/><path d="M1239,-77L1333,127L1360,-25Z" fill="#c5acd4" stroke="#c5acd4"/><path d="M1239,-77L1360,-25L1584,-143Z" fill="#c4a4d0" stroke="#c4a4d0"/><path d="M1360,-25L1333,127L1456,2Z" fill="#c4a5d1" stroke="#c4a5d1"/><path d="M1360,-25L1456,2L1584,-143Z" fill="#c29dcb" stroke="#c29dcb"/><path d="M1584,-143L1456,2L1548,5Z" fill="#bf94c5" stroke="#bf94c5"/><path d="M1584,-143L1548,5L1719,-82Z" fill="#ba89bc" stroke="#ba89bc"/><path d="M1584,-143L1719,-82L1832,-94Z" fill="#b580b2" stroke="#b580b2"/><path d="M1584,-143L1832,-94L2015,-68Z" fill="#b080a8" stroke="#b080a8"/><path d="M1719,-82L1548,5L1784,62Z" fill="#b780b5" stroke="#b780b5"/><path d="M1719,-82L1784,62L1832,-94Z" fill="#b180ab" stroke="#b180ab"/><path d="M1832,-94L1784,62L1935,14Z" fill="#ae80a4" stroke="#ae80a4"/><path d="M1832,-94L1935,14L2015,-68Z" fill="#a9809b" stroke="#a9809b"/><path d="M2015,-68L1935,14L2005,1Z" fill="#a68095" stroke="#a68095"/><path d="M2015,-68L2005,1L2045,237Z" fill="#a48092" stroke="#a48092"/><path d="M2015,-68L2045,237L2089,470Z" fill="#997f8f" stroke="#997f8f"/><path d="M-31,119L-81,252L51,295Z" fill="#f1fdff" stroke="#f1fdff"/><path d="M-31,119L51,295L193,100Z" fill="#f2fbfd" stroke="#f2fbfd"/><path d="M-31,119L193,100L16,44Z" fill="#f8fcfd" stroke="#f8fcfd"/><path d="M193,100L51,295L126,308Z" fill="#e9f8fc" stroke="#e9f8fc"/><path d="M193,100L126,308L246,252Z" fill="#e7f6fb" stroke="#e7f6fb"/><path d="M193,100L246,252L355,167Z" fill="#e8f4f9" stroke="#e8f4f9"/><path d="M436,112L355,167L511,253Z" fill="#dcebf4" stroke="#dcebf4"/><path d="M436,112L511,253L486,110Z" fill="#dbe9f3" stroke="#dbe9f3"/><path d="M486,110L511,253L619,88Z" fill="#d8e6f1" stroke="#d8e6f1"/><path d="M619,88L511,253L648,269Z" fill="#cfe3f0" stroke="#cfe3f0"/><path d="M619,88L648,269L791,164Z" fill="#cbdfee" stroke="#cbdfee"/><path d="M619,88L791,164L820,123Z" fill="#cddcec" stroke="#cddcec"/><path d="M820,123L791,164L922,212Z" fill="#c5d3e8" stroke="#c5d3e8"/><path d="M820,123L922,212L990,33Z" fill="#c8cfe5" stroke="#c8cfe5"/><path d="M990,33L922,212L1096,171Z" fill="#c4c7e1" stroke="#c4c7e1"/><path d="M1184,136L1096,171L1260,196Z" fill="#c1b7d9" stroke="#c1b7d9"/><path d="M1184,136L1260,196L1333,127Z" fill="#c2b0d6" stroke="#c2b0d6"/><path d="M1333,127L1260,196L1363,155Z" fill="#c0aad3" stroke="#c0aad3"/><path d="M1333,127L1363,155L1456,2Z" fill="#c4a5d1" stroke="#c4a5d1"/><path d="M1456,2L1363,155L1548,5Z" fill="#c39ecd" stroke="#c39ecd"/><path d="M1548,5L1363,155L1625,273Z" fill="#bd96c7" stroke="#bd96c7"/><path d="M1548,5L1625,273L1784,62Z" fill="#b884b8" stroke="#b884b8"/><path d="M1784,62L1625,273L1787,234Z" fill="#ac7fb0" stroke="#ac7fb0"/><path d="M1784,62L1787,234L1812,189Z" fill="#ac7fa9" stroke="#ac7fa9"/><path d="M1784,62L1812,189L1935,14Z" fill="#ae80a4" stroke="#ae80a4"/><path d="M1935,14L1812,189L2045,237Z" fill="#a67f9b" stroke="#a67f9b"/><path d="M1935,14L2045,237L2005,1Z" fill="#a68094" stroke="#a68094"/><path d="M-81,252L-130,403L51,295Z" fill="#e4f5ff" stroke="#e4f5ff"/><path d="M51,295L-130,403L72,582Z" fill="#d4e2f9" stroke="#d4e2f9"/><path d="M51,295L72,582L126,308Z" fill="#d3e5fa" stroke="#d3e5fa"/><path d="M246,252L126,308L281,312Z" fill="#dbeffa" stroke="#dbeffa"/><path d="M246,252L281,312L355,167Z" fill="#dff1f8" stroke="#dff1f8"/><path d="M355,167L281,312L437,349Z" fill="#d5eaf6" stroke="#d5eaf6"/><path d="M355,167L437,349L511,253Z" fill="#d2e9f4" stroke="#d2e9f4"/><path d="M511,253L437,349L583,304Z" fill="#c6dff2" stroke="#c6dff2"/><path d="M511,253L583,304L648,269Z" fill="#c5dff0" stroke="#c5dff0"/><path d="M648,269L583,304L676,411Z" fill="#b9d6ef" stroke="#b9d6ef"/><path d="M648,269L676,411L764,407Z" fill="#afcfed" stroke="#afcfed"/><path d="M648,269L764,407L791,164Z" fill="#bbd7ec" stroke="#bbd7ec"/><path d="M791,164L764,407L922,212Z" fill="#bad2e8" stroke="#bad2e8"/><path d="M922,212L764,407L903,404Z" fill="#abc5e7" stroke="#abc5e7"/><path d="M922,212L903,404L1096,375Z" fill="#aabee2" stroke="#aabee2"/><path d="M922,212L1096,375L1096,171Z" fill="#b7c1df" stroke="#b7c1df"/><path d="M1096,171L1096,375L1260,196Z" fill="#b7b8da" stroke="#b7b8da"/><path d="M1260,196L1096,375L1281,419Z" fill="#aaa9d8" stroke="#aaa9d8"/><path d="M1260,196L1281,419L1412,331Z" fill="#aba1d3" stroke="#aba1d3"/><path d="M1260,196L1412,331L1363,155Z" fill="#b9a7d2" stroke="#b9a7d2"/><path d="M1363,155L1412,331L1625,273Z" fill="#b39acb" stroke="#b39acb"/><path d="M1625,273L1412,331L1533,424Z" fill="#a188c6" stroke="#a188c6"/><path d="M1625,273L1533,424L1697,414Z" fill="#9877bb" stroke="#9877bb"/><path d="M1625,273L1697,414L1787,234Z" fill="#9e77b3" stroke="#9e77b3"/><path d="M1787,234L1697,414L1866,403Z" fill="#9272aa" stroke="#9272aa"/><path d="M1787,234L1866,403L2045,237Z" fill="#95799e" stroke="#95799e"/><path d="M1787,234L2045,237L1812,189Z" fill="#a17fa0" stroke="#a17fa0"/><path d="M2045,237L1866,403L2070,409Z" fill="#877295" stroke="#877295"/><path d="M2045,237L2070,409L2089,470Z" fill="#806f8c" stroke="#806f8c"/><path d="M-130,403L-112,865L-105,582Z" fill="#d3bde8" stroke="#d3bde8"/><path d="M-130,403L-105,582L72,582Z" fill="#d2d1f2" stroke="#d2d1f2"/><path d="M126,308L72,582L263,510Z" fill="#c9d6f3" stroke="#c9d6f3"/><path d="M126,308L263,510L281,312Z" fill="#cee4f9" stroke="#cee4f9"/><path d="M281,312L263,510L437,349Z" fill="#c6ddf5" stroke="#c6ddf5"/><path d="M437,349L263,510L378,584Z" fill="#bccaed" stroke="#bccaed"/><path d="M437,349L378,584L545,517Z" fill="#b5c5ea" stroke="#b5c5ea"/><path d="M437,349L545,517L583,304Z" fill="#b8d3f0" stroke="#b8d3f0"/><path d="M583,304L545,517L676,411Z" fill="#b1cbec" stroke="#b1cbec"/><path d="M676,411L545,517L681,582Z" fill="#a9b8e3" stroke="#a9b8e3"/><path d="M676,411L681,582L765,555Z" fill="#a4b1e0" stroke="#a4b1e0"/><path d="M676,411L765,555L764,407Z" fill="#a5bce5" stroke="#a5bce5"/><path d="M764,407L765,555L919,532Z" fill="#9fadde" stroke="#9fadde"/><path d="M764,407L919,532L903,404Z" fill="#a0b4e0" stroke="#a0b4e0"/><path d="M903,404L919,532L1096,375Z" fill="#9eaddc" stroke="#9eaddc"/><path d="M1096,375L919,532L1108,527Z" fill="#9a9ed6" stroke="#9a9ed6"/><path d="M1096,375L1108,527L1281,419Z" fill="#9e9bd4" stroke="#9e9bd4"/><path d="M1281,419L1108,527L1273,529Z" fill="#9a8ccd" stroke="#9a8ccd"/><path d="M1281,419L1273,529L1472,576Z" fill="#997ec6" stroke="#997ec6"/><path d="M1281,419L1472,576L1412,331Z" fill="#9c87ca" stroke="#9c87ca"/><path d="M1412,331L1472,576L1533,424Z" fill="#997dc4" stroke="#997dc4"/><path d="M1533,424L1472,576L1610,492Z" fill="#926ab9" stroke="#926ab9"/><path d="M1533,424L1610,492L1697,414Z" fill="#926bb6" stroke="#926bb6"/><path d="M1697,414L1610,492L1760,488Z" fill="#8c5dac" stroke="#8c5dac"/><path d="M1697,414L1760,488L1866,403Z" fill="#8a63a6" stroke="#8a63a6"/><path d="M1866,403L1760,488L1888,463Z" fill="#85609e" stroke="#85609e"/><path d="M1866,403L1888,463L2070,409Z" fill="#826595" stroke="#826595"/><path d="M2070,409L1888,463L2089,470Z" fill="#7c618c" stroke="#7c618c"/><path d="M-105,582L-112,865L-2,672Z" fill="#d1aadf" stroke="#d1aadf"/><path d="M-105,582L-2,672L72,582Z" fill="#d0bde8" stroke="#d0bde8"/><path d="M72,582L-2,672L150,660Z" fill="#cbb5e4" stroke="#cbb5e4"/><path d="M72,582L150,660L263,510Z" fill="#c8bde7" stroke="#c8bde7"/><path d="M263,510L150,660L378,584Z" fill="#c2b9e5" stroke="#c2b9e5"/><path d="M378,584L150,660L151,684Z" fill="#c3afe1" stroke="#c3afe1"/><path d="M378,584L151,684L310,814Z" fill="#bfa2da" stroke="#bfa2da"/><path d="M378,584L310,814L432,651Z" fill="#b99fd8" stroke="#b99fd8"/><path d="M378,584L432,651L545,517Z" fill="#b5afe0" stroke="#b5afe0"/><path d="M545,517L432,651L527,693Z" fill="#b1a5db" stroke="#b1a5db"/><path d="M545,517L527,693L630,618Z" fill="#ada4da" stroke="#ada4da"/><path d="M545,517L630,618L681,582Z" fill="#aaaadd" stroke="#aaaadd"/><path d="M681,582L630,618L651,814Z" fill="#a693d2" stroke="#a693d2"/><path d="M681,582L651,814L869,691Z" fill="#a08acd" stroke="#a08acd"/><path d="M681,582L869,691L765,555Z" fill="#a199d4" stroke="#a199d4"/><path d="M765,555L869,691L919,532Z" fill="#9e96d3" stroke="#9e96d3"/><path d="M919,532L869,691L930,734Z" fill="#9b86cb" stroke="#9b86cb"/><path d="M919,532L930,734L1108,527Z" fill="#9a8acd" stroke="#9a8acd"/><path d="M1108,527L930,734L1157,610Z" fill="#997ec6" stroke="#997ec6"/><path d="M1108,527L1157,610L1273,529Z" fill="#9a82c8" stroke="#9a82c8"/><path d="M1273,529L1157,610L1248,697Z" fill="#9a71c1" stroke="#9a71c1"/><path d="M1273,529L1248,697L1408,643Z" fill="#9868bc" stroke="#9868bc"/><path d="M1273,529L1408,643L1472,576Z" fill="#986abd" stroke="#986abd"/><path d="M1472,576L1408,643L1514,793Z" fill="#954faf" stroke="#954faf"/><path d="M1472,576L1514,793L1629,631Z" fill="#9147a8" stroke="#9147a8"/><path d="M1472,576L1629,631L1610,492Z" fill="#9157af" stroke="#9157af"/><path d="M1610,492L1629,631L1760,488Z" fill="#8b51a8" stroke="#8b51a8"/><path d="M1760,488L1629,631L1697,696Z" fill="#8a409e" stroke="#8a409e"/><path d="M1760,488L1697,696L1835,750Z" fill="#853893" stroke="#853893"/><path d="M1760,488L1835,750L1888,463Z" fill="#834894" stroke="#834894"/><path d="M1888,463L1835,750L2089,621Z" fill="#7d3f84" stroke="#7d3f84"/><path d="M1888,463L2089,621L2089,470Z" fill="#785385" stroke="#785385"/><path d="M-2,672L-112,865L133,851Z" fill="#c399cb" stroke="#c399cb"/><path d="M-2,672L133,851L151,684Z" fill="#c7a0d8" stroke="#c7a0d8"/><path d="M-2,672L151,684L150,660Z" fill="#c9ade0" stroke="#c9ade0"/><path d="M151,684L133,851L192,832Z" fill="#bd94ca" stroke="#bd94ca"/><path d="M151,684L192,832L310,814Z" fill="#bc95cc" stroke="#bc95cc"/><path d="M432,651L310,814L527,693Z" fill="#b595d3" stroke="#b595d3"/><path d="M527,693L310,814L590,856Z" fill="#a986c2" stroke="#a986c2"/><path d="M527,693L590,856L651,814Z" fill="#a181bf" stroke="#a181bf"/><path d="M527,693L651,814L630,618Z" fill="#a98ed0" stroke="#a98ed0"/><path d="M869,691L651,814L859,811Z" fill="#9877bd" stroke="#9877bd"/><path d="M869,691L859,811L930,734Z" fill="#9875bf" stroke="#9875bf"/><path d="M930,734L859,811L906,818Z" fill="#926cb4" stroke="#926cb4"/><path d="M930,734L906,818L1054,903Z" fill="#8c61aa" stroke="#8c61aa"/><path d="M930,734L1054,903L1123,899Z" fill="#8856a0" stroke="#8856a0"/><path d="M930,734L1123,899L1157,610Z" fill="#9564b7" stroke="#9564b7"/><path d="M1157,610L1123,899L1248,697Z" fill="#965db5" stroke="#965db5"/><path d="M1248,697L1123,899L1218,882Z" fill="#8b4c9e" stroke="#8b4c9e"/><path d="M1248,697L1218,882L1464,862Z" fill="#8b449c" stroke="#8b449c"/><path d="M1248,697L1464,862L1408,643Z" fill="#954cad" stroke="#954cad"/><path d="M1408,643L1464,862L1514,793Z" fill="#8f3da0" stroke="#8f3da0"/><path d="M1629,631L1514,793L1697,696Z" fill="#8c349c" stroke="#8c349c"/><path d="M1697,696L1514,793L1691,825Z" fill="#85268d" stroke="#85268d"/><path d="M1697,696L1691,825L1835,750Z" fill="#812285" stroke="#812285"/><path d="M1835,750L1691,825L1877,820Z" fill="#791a75" stroke="#791a75"/><path d="M1835,750L1877,820L2049,833Z" fill="#721a68" stroke="#721a68"/><path d="M1835,750L2049,833L2089,621Z" fill="#762571" stroke="#762571"/><path d="M2089,621L2049,833L2040,1044Z" fill="#661452" stroke="#661452"/><path d="M-112,865L-50,1154L-44,947Z" fill="#af809c" stroke="#af809c"/><path d="M-112,865L-44,947L133,851Z" fill="#b989b4" stroke="#b989b4"/><path d="M133,851L-44,947L128,993Z" fill="#af7fa8" stroke="#af7fa8"/><path d="M133,851L128,993L204,931Z" fill="#ac7da8" stroke="#ac7da8"/><path d="M133,851L204,931L192,832Z" fill="#b286b5" stroke="#b286b5"/><path d="M192,832L204,931L310,814Z" fill="#b086b7" stroke="#b086b7"/><path d="M310,814L204,931L350,967Z" fill="#a77caa" stroke="#a77caa"/><path d="M310,814L350,967L468,968Z" fill="#9f75a5" stroke="#9f75a5"/><path d="M310,814L468,968L590,856Z" fill="#9f77ab" stroke="#9f77ab"/><path d="M590,856L468,968L653,910Z" fill="#936ca1" stroke="#936ca1"/><path d="M590,856L653,910L651,814Z" fill="#9572ac" stroke="#9572ac"/><path d="M651,814L653,910L766,936Z" fill="#8e6ba4" stroke="#8e6ba4"/><path d="M651,814L766,936L859,811Z" fill="#8f6caa" stroke="#8f6caa"/><path d="M859,811L766,936L906,818Z" fill="#8b65a6" stroke="#8b65a6"/><path d="M906,818L766,936L947,992Z" fill="#835896" stroke="#835896"/><path d="M906,818L947,992L1054,903Z" fill="#815294" stroke="#815294"/><path d="M1123,899L1054,903L1138,1185Z" fill="#753e78" stroke="#753e78"/><path d="M1123,899L1138,1185L1219,924Z" fill="#743974" stroke="#743974"/><path d="M1123,899L1219,924L1218,882Z" fill="#813f8b" stroke="#813f8b"/><path d="M1218,882L1219,924L1464,862Z" fill="#81378a" stroke="#81378a"/><path d="M1464,862L1219,924L1497,1016Z" fill="#7b277b" stroke="#7b277b"/><path d="M1464,862L1497,1016L1691,825Z" fill="#791a76" stroke="#791a76"/><path d="M1464,862L1691,825L1514,793Z" fill="#822688" stroke="#822688"/><path d="M1691,825L1497,1016L1736,961Z" fill="#700864" stroke="#700864"/><path d="M1691,825L1736,961L1877,820Z" fill="#710e67" stroke="#710e67"/><path d="M1877,820L1736,961L1856,1004Z" fill="#670452" stroke="#670452"/><path d="M1877,820L1856,1004L2049,833Z" fill="#660b52" stroke="#660b52"/><path d="M2049,833L1856,1004L2040,1044Z" fill="#5a003a" stroke="#5a003a"/><path d="M-44,947L-50,1154L128,993Z" fill="#a57e91" stroke="#a57e91"/><path d="M128,993L-50,1154L145,1088Z" fill="#9c7c84" stroke="#9c7c84"/><path d="M128,993L145,1088L245,1059Z" fill="#9b788a" stroke="#9b788a"/><path d="M128,993L245,1059L204,931Z" fill="#a27896" stroke="#a27896"/><path d="M204,931L245,1059L350,967Z" fill="#9e7597" stroke="#9e7597"/><path d="M350,967L245,1059L373,1079Z" fill="#947289" stroke="#947289"/><path d="M350,967L373,1079L468,968Z" fill="#936e8e" stroke="#936e8e"/><path d="M468,968L373,1079L518,1194Z" fill="#866b7a" stroke="#866b7a"/><path d="M468,968L518,1194L647,1148Z" fill="#7c6772" stroke="#7c6772"/><path d="M468,968L647,1148L653,910Z" fill="#856588" stroke="#856588"/><path d="M653,910L647,1148L766,936Z" fill="#806089" stroke="#806089"/><path d="M766,936L647,1148L802,1124Z" fill="#745d75" stroke="#745d75"/><path d="M766,936L802,1124L947,992Z" fill="#77557e" stroke="#77557e"/><path d="M947,992L802,1124L929,1174Z" fill="#6a5168" stroke="#6a5168"/><path d="M947,992L929,1174L1138,1185Z" fill="#654761" stroke="#654761"/><path d="M947,992L1138,1185L1054,903Z" fill="#714472" stroke="#714472"/><path d="M1219,924L1138,1185L1278,1140Z" fill="#6a355e" stroke="#6a355e"/><path d="M1219,924L1278,1140L1497,1016Z" fill="#702a66" stroke="#702a66"/><path d="M1497,1016L1278,1140L1471,1105Z" fill="#672354" stroke="#672354"/><path d="M1497,1016L1471,1105L1501,1037Z" fill="#691a57" stroke="#691a57"/><path d="M1497,1016L1501,1037L1736,961Z" fill="#6a0e59" stroke="#6a0e59"/><path d="M1501,1037L1471,1105L1503,1105Z" fill="#651a4f" stroke="#651a4f"/><path d="M1501,1037L1503,1105L1693,1173Z" fill="#5e1042" stroke="#5e1042"/><path d="M1501,1037L1693,1173L1736,961Z" fill="#600645" stroke="#600645"/><path d="M1736,961L1693,1173L1856,1004Z" fill="#5b003c" stroke="#5b003c"/><path d="M1856,1004L1693,1173L1858,1167Z" fill="#500029" stroke="#500029"/><path d="M1856,1004L1858,1167L2040,1044Z" fill="#4f0025" stroke="#4f0025"/><path d="M2040,1044L1858,1167L1995,1196Z" fill="#440018" stroke="#440018"/><path d="M-50,1154L518,1194L145,1088Z" fill="#8d777b" stroke="#8d777b"/><path d="M145,1088L518,1194L373,1079Z" fill="#887177" stroke="#887177"/><path d="M145,1088L373,1079L245,1059Z" fill="#947681" stroke="#947681"/><path d="M518,1194L1995,1196L1138,1185Z" fill="#5c3458" stroke="#5c3458"/><path d="M518,1194L1138,1185L929,1174Z" fill="#605367" stroke="#605367"/><path d="M518,1194L929,1174L647,1148Z" fill="#695f6e" stroke="#695f6e"/><path d="M647,1148L929,1174L802,1124Z" fill="#68586a" stroke="#68586a"/><path d="M1138,1185L1995,1196L1693,1173Z" fill="#520a3d" stroke="#520a3d"/><path d="M1138,1185L1693,1173L1278,1140Z" fill="#5e2752" stroke="#5e2752"/><path d="M1278,1140L1693,1173L1471,1105Z" fill="#5e1b4b" stroke="#5e1b4b"/><path d="M1471,1105L1693,1173L1503,1105Z" fill="#5b1143" stroke="#5b1143"/><path d="M1693,1173L1995,1196L1858,1167Z" fill="#450024" stroke="#450024"/></g></svg>